<svg xmlns="http://www.w3.org/2000/svg" viewBox="-9097 13930 354 214">
  <defs>
    <style>
      .cls-1 {
        fill: #fff;
      }

      .cls-2 {
        fill: #878b57;
      }

      .cls-3 {
        fill: #b4d36a;
      }
    </style>
  </defs>
  <g id="Group_14163" data-name="Group 14163" transform="translate(-9097 13930)">
    <g id="Group_14161" data-name="Group 14161">
      <path id="Path_8493" data-name="Path 8493" class="cls-1" d="M203.4,136.6V77.4h8.3l19,29.9a165.734,165.734,0,0,1,10.6,19.2l.2-.1c-.7-7.9-.9-15.1-.9-24.3V77.4h7.2v59.1h-7.7l-18.8-30a198.19,198.19,0,0,1-11.1-19.7l-.3.1c.4,7.5.6,14.6.6,24.4v25.3Z"/>
      <path id="Path_8494" data-name="Path 8494" class="cls-1" d="M270.7,118l-6.1,18.6h-7.9l20.1-59.1H286l20.2,59.1H298L291.7,118h-21Zm19.4-6-5.8-17c-1.3-3.9-2.2-7.4-3.1-10.8H281c-.9,3.5-1.8,7.1-3,10.7L272.2,112h17.9Z"/>
      <path id="Path_8495" data-name="Path 8495" class="cls-1" d="M310.8,132.1l32.8-48v-.3h-30V77.4h39.9V82l-32.6,47.8v.3H354v6.4H310.8v-4.4Z"/>
    </g>
    <g id="Group_14162" data-name="Group 14162">
      <path id="Path_8496" data-name="Path 8496" class="cls-2" d="M151.9,87.1a22.23,22.23,0,0,1-6.5,15.7l-2.3,2.3-.1-.1-39.4,39.4L85.7,126.5l26.2-26.2,13.2-13.2L74,35.9l-56,56L0,74,56,18h0L73.9,0h0l18,18h0l51.2,51.2h0l2.2,2.2.2.2A21.847,21.847,0,0,1,151.9,87.1Z"/>
      <path id="Path_8497" data-name="Path 8497" class="cls-3" d="M10.3,126.9a22.23,22.23,0,0,1,6.5-15.7l2.3-2.3.1.1L58.6,69.6,76.5,87.5,50.3,113.7,37,126.9l51.2,51.2,56-56L162.1,140l-56,56h0L88.2,214h0L70.3,196h0L19.1,144.8h0l-2.2-2.2-.2-.2A21.847,21.847,0,0,1,10.3,126.9Z"/>
    </g>
  </g>
</svg>
