<svg xmlns="http://www.w3.org/2000/svg" xmlns:xlink="http://www.w3.org/1999/xlink" viewBox="-11707 2101 575 566">
  <defs>
    <style>
      .cls-1 {
        clip-path: url(#clip-Custom_Size_13);
      }

      .cls-2 {
        opacity: 0.212;
      }

      .cls-3, .cls-6 {
        fill: #fafbfc;
      }

      .cls-3, .cls-4, .cls-5, .cls-6, .cls-7 {
        stroke: #99cd56;
      }

      .cls-3, .cls-4, .cls-6, .cls-7 {
        stroke-miterlimit: 10;
        stroke-width: 3px;
      }

      .cls-4, .cls-7 {
        fill: none;
      }

      .cls-5, .cls-8 {
        fill: #99cd56;
        font-size: 25px;
        font-family: Helvetica;
      }

      .cls-5 {
        stroke-width: 0.75px;
      }

      .cls-6, .cls-7 {
        stroke-linecap: round;
        stroke-linejoin: round;
      }

      .cls-9 {
        fill: url(#linear-gradient);
      }

      .cls-10 {
        fill: #333;
      }

      .cls-11 {
        fill: #878b57;
      }

      .cls-12 {
        fill: #b4d36a;
      }

      .cls-13 {
        fill: #fff;
      }
    </style>
    <linearGradient id="linear-gradient" x1="0.5" x2="0.5" y2="1" gradientUnits="objectBoundingBox">
      <stop offset="0" stop-color="#97cc53"/>
      <stop offset="1" stop-color="#4c662a"/>
    </linearGradient>
    <clipPath id="clip-Custom_Size_13">
      <rect x="-11707" y="2101" width="575" height="566"/>
    </clipPath>
  </defs>
  <g id="Custom_Size_13" data-name="Custom Size – 13" class="cls-1">
    <rect class="cls-13" x="-11707" y="2101" width="575" height="566"/>
    <g id="Group_1363" data-name="Group 1363" class="cls-2" transform="translate(-11693.299 2100.1)">
      <g id="Group_1336" data-name="Group 1336" transform="translate(327.375 373.559)">
        <path id="Path_8110" data-name="Path 8110" class="cls-3" d="M266.666,292.3a25.783,25.783,0,0,1-51.566,0c0-9.154,4.729-21.664,11.747-29.6a3.792,3.792,0,0,0,1.221.153h25.326a4.224,4.224,0,0,0,1.373-.153C261.937,270.633,266.666,283.143,266.666,292.3Z" transform="translate(-215.1 -236.263)"/>
        <path id="Path_8111" data-name="Path 8111" class="cls-3" d="M252,263.112l2.746-13.273c.61-2.746-1.678-5.187-4.119-4.272l-9,2.9a11.52,11.52,0,0,1-7.17,0l-9.306-2.9c-2.441-.763-4.729,1.678-4.119,4.272l2.746,13.426" transform="translate(-212.033 -245.372)"/>
        <path id="Path_8112" data-name="Path 8112" class="cls-4" d="M255.027,261.424a4.391,4.391,0,0,1-1.373,3.2,4.462,4.462,0,0,1-1.831,1.068,4.222,4.222,0,0,1-1.373.153H225.124a2.973,2.973,0,0,1-1.22-.153,4.582,4.582,0,0,1-3.2-4.272,3.841,3.841,0,0,1,1.373-3.051,4.757,4.757,0,0,1,3.2-1.373H250.6A4.427,4.427,0,0,1,255.027,261.424Z" transform="translate(-212.156 -239.259)"/>
        <text id="_" data-name="$" class="cls-5" transform="translate(18.188 59.239)"><tspan x="0" y="0">$</tspan></text>
      </g>
      <g id="Group_1337" data-name="Group 1337" transform="translate(147.122 171.1)">
        <path id="Path_8113" data-name="Path 8113" class="cls-3" d="M120.521,155.893a5.54,5.54,0,0,1-3.967-1.678l-18-18a5.61,5.61,0,0,1,7.933-7.933L119.911,141.7l20.9-26.851a5.66,5.66,0,1,1,9,6.865L125.1,153.757a5.515,5.515,0,0,1-4.119,2.136Z" transform="translate(-96.95 -112.667)"/>
      </g>
      <g id="Group_1338" data-name="Group 1338" transform="translate(421.354 178.473)">
        <rect id="Rectangle_3012" data-name="Rectangle 3012" class="cls-6" width="11.9" height="33.869" transform="translate(0.153 67.128)"/>
        <rect id="Rectangle_3013" data-name="Rectangle 3013" class="cls-6" width="11.9" height="43.175" transform="translate(23.19 57.974)"/>
        <rect id="Rectangle_3014" data-name="Rectangle 3014" class="cls-6" width="11.9" height="52.939" transform="translate(46.227 48.057)"/>
        <rect id="Rectangle_3015" data-name="Rectangle 3015" class="cls-6" width="11.9" height="67.891" transform="translate(69.264 33.259)"/>
        <path id="Path_8114" data-name="Path 8114" class="cls-7" d="M357.1,117.5c-19.07,22.579-37.073,42.87-80.4,42.87" transform="translate(-276.7 -117.5)"/>
        <path id="Path_8115" data-name="Path 8115" class="cls-7" d="M320.4,117.5h13.731v13.731" transform="translate(-253.73 -117.5)"/>
      </g>
      <path id="Path_8116" data-name="Path 8116" class="cls-6" d="M28.086,206.9A20.054,20.054,0,0,0,8.1,226.886c0,12.053,19.986,40.124,19.986,40.124s19.986-28.377,19.986-40.124A20.054,20.054,0,0,0,28.086,206.9Zm0,25.173a7.476,7.476,0,1,1,7.476-7.476A7.488,7.488,0,0,1,28.086,232.073Z" transform="translate(3.469 107.965)"/>
      <g id="Group_1341" data-name="Group 1341" transform="translate(230.498 479.936)">
        <g id="Group_1339" data-name="Group 1339" transform="translate(63.314)">
          <path id="Path_8117" data-name="Path 8117" class="cls-6" d="M267.246,328.832V345a13.934,13.934,0,0,1-13.883,13.883l1.068,15.1-20.749-15.1H217.358V348.97a16.3,16.3,0,0,0-16.324-16.324H193.1v-3.661A13.934,13.934,0,0,1,206.983,315.1h46.532A13.578,13.578,0,0,1,267.246,328.832Z" transform="translate(-193.1 -315.098)"/>
          <line id="Line_600" data-name="Line 600" class="cls-7" x1="37.073" transform="translate(14.951 11.75)"/>
          <line id="Line_601" data-name="Line 601" class="cls-7" x1="26.546" transform="translate(34.937 30.973)"/>
          <line id="Line_602" data-name="Line 602" class="cls-7" x1="18.765" transform="translate(42.718 21.362)"/>
          <line id="Line_603" data-name="Line 603" class="cls-7" x1="9.306" transform="translate(18.613 21.362)"/>
        </g>
        <g id="Group_1340" data-name="Group 1340" transform="translate(0 17.395)">
          <path id="Path_8118" data-name="Path 8118" class="cls-7" d="M239.171,342.824v19.07a16.343,16.343,0,0,1-16.324,16.324H191.267L166.7,396.069l1.221-17.85A16.343,16.343,0,0,1,151.6,361.895v-19.07A16.343,16.343,0,0,1,167.924,326.5h54.923a16.3,16.3,0,0,1,16.324,16.324Z" transform="translate(-151.6 -326.5)"/>
          <line id="Line_604" data-name="Line 604" class="cls-7" x2="43.938" transform="translate(26.088 14.188)"/>
          <line id="Line_605" data-name="Line 605" class="cls-7" x2="31.275" transform="translate(15.104 36.768)"/>
          <line id="Line_606" data-name="Line 606" class="cls-7" x2="21.969" transform="translate(15.104 25.478)"/>
          <line id="Line_607" data-name="Line 607" class="cls-7" x2="13.883" transform="translate(54.618 25.478)"/>
        </g>
      </g>
      <g id="Group_1342" data-name="Group 1342" transform="translate(11.055 157.04)">
        <circle id="Ellipse_43" data-name="Ellipse 43" class="cls-3" cx="38.904" cy="38.904" r="38.904" transform="translate(1.429 1.448)"/>
        <circle id="Ellipse_44" data-name="Ellipse 44" class="cls-3" cx="28.529" cy="28.529" r="28.529" transform="matrix(0.677, -0.736, 0.736, 0.677, 0, 41.995)"/>
        <line id="Line_608" data-name="Line 608" class="cls-7" y2="10.374" transform="translate(40.333 1.448)"/>
        <line id="Line_609" data-name="Line 609" class="cls-7" x1="8.849" y2="5.492" transform="translate(64.895 20.366)"/>
        <line id="Line_610" data-name="Line 610" class="cls-7" x1="8.696" y1="5.645" transform="translate(6.616 20.671)"/>
        <line id="Line_611" data-name="Line 611" class="cls-7" x2="7.323" y2="7.323" transform="translate(11.651 13.958)"/>
        <text id="_2" data-name="%" class="cls-8" transform="translate(30.463 46.621)"><tspan x="0" y="0">%</tspan></text>
      </g>
      <g id="Group_1345" data-name="Group 1345" transform="translate(230.803 1.5)">
        <g id="Group_1343" data-name="Group 1343" transform="translate(0 37.836)">
          <path id="Path_8119" data-name="Path 8119" class="cls-6" d="M156.682,55.287h0a4.82,4.82,0,0,1-4.882-4.882V31.182a4.82,4.82,0,0,1,4.882-4.882h0a4.82,4.82,0,0,1,4.882,4.882v19.07A4.95,4.95,0,0,1,156.682,55.287Z" transform="translate(-151.8 -26.3)"/>
          <path id="Path_8120" data-name="Path 8120" class="cls-6" d="M206.382,55.287h0a4.82,4.82,0,0,1-4.882-4.882V31.182a4.82,4.82,0,0,1,4.882-4.882h0a4.82,4.82,0,0,1,4.882,4.882v19.07A5.051,5.051,0,0,1,206.382,55.287Z" transform="translate(-125.676 -26.3)"/>
        </g>
        <path id="Path_8121" data-name="Path 8121" class="cls-7" d="M155,39.336a37.836,37.836,0,1,1,75.671,0" transform="translate(-150.118 -1.5)"/>
        <g id="Group_1344" data-name="Group 1344" transform="translate(36.92 66.823)">
          <path id="Path_8122" data-name="Path 8122" class="cls-7" d="M213.481,45.3l-4.729,12.51A21.861,21.861,0,0,1,181.9,71.083h0" transform="translate(-172.899 -45.3)"/>
          <path id="Path_8123" data-name="Path 8123" class="cls-6" d="M187.595,62.9a5.8,5.8,0,1,1-5.8-5.8A5.795,5.795,0,0,1,187.595,62.9Z" transform="translate(-176 -39.098)"/>
        </g>
      </g>
      <g id="Group_1347" data-name="Group 1347" transform="translate(62.068 239.346)">
        <path id="Path_8124" data-name="Path 8124" class="cls-6" d="M41.2,201.2v5.492a8.921,8.921,0,0,0,9,9h58.889" transform="translate(-41.2 -134.377)"/>
        <path id="Path_8125" data-name="Path 8125" class="cls-6" d="M58.135,224.223V157.4h58.889v73.23a8.139,8.139,0,0,1-8.086,8.086h0a8.139,8.139,0,0,1-8.086-8.086v-6.408H41.2" transform="translate(-41.2 -157.4)"/>
        <g id="Group_1346" data-name="Group 1346" transform="translate(27.767 15.256)">
          <line id="Line_612" data-name="Line 612" class="cls-7" x2="32.038"/>
          <line id="Line_613" data-name="Line 613" class="cls-7" x2="32.038" transform="translate(0 31.733)"/>
          <line id="Line_614" data-name="Line 614" class="cls-7" x2="32.038" transform="translate(0 21.206)"/>
          <line id="Line_615" data-name="Line 615" class="cls-7" x2="21.664" transform="translate(0 10.679)"/>
        </g>
      </g>
      <g id="Group_1349" data-name="Group 1349" transform="translate(437.394 105.091)">
        <path id="Path_8126" data-name="Path 8126" class="cls-3" d="M320.147,127.527l13.426-24.41a23.158,23.158,0,0,0,2.441-15.256h0A22.879,22.879,0,0,0,313.586,69.4h-3.509a22.879,22.879,0,0,0-22.427,18.46h0a22.133,22.133,0,0,0,2.441,15.256l13.426,24.41Z" transform="translate(-287.213 -69.4)"/>
        <line id="Line_616" data-name="Line 616" class="cls-4" transform="translate(24.543 63.924)"/>
        <g id="Group_1348" data-name="Group 1348" transform="translate(13.1 26.241)">
          <path id="Path_8127" data-name="Path 8127" class="cls-4" d="M304.038,124.283V90.719a4.1,4.1,0,0,0-4.119-4.119h0a4.1,4.1,0,0,0-4.119,4.119v.61a4.1,4.1,0,0,0,4.119,4.119h11.137" transform="translate(-295.8 -86.6)"/>
          <path id="Path_8128" data-name="Path 8128" class="cls-4" d="M307.818,124.283V90.719a4.1,4.1,0,0,1,4.119-4.119h0a4.1,4.1,0,0,1,4.119,4.119v.61a4.1,4.1,0,0,1-4.119,4.119H300.8" transform="translate(-293.172 -86.6)"/>
        </g>
        <path id="Path_8129" data-name="Path 8129" class="cls-6" d="M311.846,115.238H301.319a4.1,4.1,0,0,1-4.119-4.119h0A4.1,4.1,0,0,1,301.319,107h10.527a4.1,4.1,0,0,1,4.119,4.119h0A4.309,4.309,0,0,1,311.846,115.238Z" transform="translate(-281.964 -49.636)"/>
        <path id="Path_8130" data-name="Path 8130" class="cls-6" d="M311.846,107.1H301.319a4.1,4.1,0,0,0-4.119,4.119h0a4.1,4.1,0,0,0,4.119,4.119h10.527a4.1,4.1,0,0,0,4.119-4.119h0A4.309,4.309,0,0,0,311.846,107.1Z" transform="translate(-281.964 -49.584)"/>
        <path id="Path_8131" data-name="Path 8131" class="cls-6" d="M311.846,112.4H301.319a4.1,4.1,0,0,0-4.119,4.119h0a4.1,4.1,0,0,0,4.119,4.119h10.527a4.1,4.1,0,0,0,4.119-4.119h0A4.309,4.309,0,0,0,311.846,112.4Z" transform="translate(-281.964 -46.798)"/>
      </g>
      <g id="Group_1351" data-name="Group 1351" transform="translate(429.745 314.407)">
        <path id="Path_8132" data-name="Path 8132" class="cls-3" d="M380.756,269.456H287.692a5.469,5.469,0,0,1-5.492-5.492V212.092a5.469,5.469,0,0,1,5.492-5.492h93.064a5.469,5.469,0,0,1,5.492,5.492v51.872A5.469,5.469,0,0,1,380.756,269.456Z" transform="translate(-282.2 -206.6)"/>
        <line id="Line_617" data-name="Line 617" class="cls-7" x2="27.004" transform="translate(11.137 50.193)"/>
        <line id="Line_618" data-name="Line 618" class="cls-7" x2="19.833" transform="translate(50.651 50.193)"/>
        <line id="Line_619" data-name="Line 619" class="cls-7" x2="9.917" transform="translate(83.147 50.193)"/>
        <g id="Group_1350" data-name="Group 1350" transform="translate(13.578 13.883)">
          <rect id="Rectangle_3016" data-name="Rectangle 3016" class="cls-7" width="18.613" height="18.613"/>
          <line id="Line_620" data-name="Line 620" class="cls-7" y2="7.323" transform="translate(12.51)"/>
          <line id="Line_621" data-name="Line 621" class="cls-7" y2="7.323" transform="translate(5.797 9.306)"/>
        </g>
        <line id="Line_622" data-name="Line 622" class="cls-7" y2="62.856" transform="translate(93.064 0)"/>
      </g>
      <path id="Path_8133" data-name="Path 8133" class="cls-6" d="M53.811,280.757l3.662,8.391a7.3,7.3,0,0,0,6.408,4.424,6.293,6.293,0,0,1,2.594-2.288,5.492,5.492,0,0,1,3.509-.305,5.414,5.414,0,0,1,4.119,3.356l3.509,8.238a5.892,5.892,0,0,1-3.051,7.628l-1.831.763a17.031,17.031,0,0,1-22.274-8.849L39.47,276.791a17.031,17.031,0,0,1,8.849-22.274l1.831-.763a5.893,5.893,0,0,1,7.628,3.051l3.509,8.238a5.52,5.52,0,0,1-.458,5.34,6.293,6.293,0,0,1-2.594,2.288,5.492,5.492,0,0,1-3.509.305A8.219,8.219,0,0,0,53.811,280.757Z" transform="translate(19.241 132.359)"/>
      <g id="Group_1354" data-name="Group 1354" transform="translate(106.158 458.427)">
        <g id="Group_1352" data-name="Group 1352" transform="translate(4.424)">
          <path id="Path_8134" data-name="Path 8134" class="cls-6" d="M96.653,301H96.5l4.272,26.088,20.443-16.629A36.993,36.993,0,0,0,96.653,301Z" transform="translate(-60.648 -301)"/>
          <path id="Path_8135" data-name="Path 8135" class="cls-6" d="M73,331.34h29.445L97.715,302.2A36.794,36.794,0,0,0,73,331.34Z" transform="translate(-73 -300.369)"/>
          <path id="Path_8136" data-name="Path 8136" class="cls-6" d="M107,325.663h20.138A39.028,39.028,0,0,0,122.714,313Z" transform="translate(-55.128 -294.692)"/>
          <path id="Path_8137" data-name="Path 8137" class="cls-6" d="M105.746,358.251h.153L101.627,331.4,79.2,346.809A36.757,36.757,0,0,0,105.746,358.251Z" transform="translate(-69.741 -285.021)"/>
          <path id="Path_8138" data-name="Path 8138" class="cls-6" d="M130.345,328.7H100.9l4.729,29.14A36.577,36.577,0,0,0,130.345,328.7Z" transform="translate(-58.335 -286.44)"/>
        </g>
        <g id="Group_1353" data-name="Group 1353" transform="translate(0 39.819)">
          <path id="Path_8139" data-name="Path 8139" class="cls-7" d="M74.219,327.6,70.1,335.686l7.933,4.272" transform="translate(-70.1 -326.837)"/>
          <line id="Line_623" data-name="Line 623" class="cls-7" y1="7.476" x2="29.292" transform="translate(3.967)"/>
        </g>
      </g>
      <g id="Group_1355" data-name="Group 1355" transform="translate(402.742 397.402)">
        <circle id="Ellipse_45" data-name="Ellipse 45" class="cls-6" cx="5.797" cy="5.797" r="5.797" transform="translate(22.427 78.112)"/>
        <path id="Path_8140" data-name="Path 8140" class="cls-6" d="M318.364,315.782a4.882,4.882,0,1,1-4.882-4.882A4.82,4.82,0,0,1,318.364,315.782Z" transform="translate(-241.32 -234.771)"/>
        <path id="Path_8141" data-name="Path 8141" class="cls-6" d="M331.3,304.755H284.618L277.6,274.7h61.025Z" transform="translate(-257.614 -253.799)"/>
        <path id="Path_8142" data-name="Path 8142" class="cls-7" d="M293.334,344.147l7.018-7.018h39.056a5.957,5.957,0,0,0,5.95-5.95h0a5.957,5.957,0,0,0-5.95-5.95H294.555L279.3,261H264.5" transform="translate(-264.5 -261)"/>
        <line id="Line_624" data-name="Line 624" class="cls-7" x2="39.056" transform="translate(22.427 30.513)"/>
        <line id="Line_625" data-name="Line 625" class="cls-7" x2="25.936" transform="translate(24.563 40.582)"/>
      </g>
      <g id="Group_1356" data-name="Group 1356" transform="translate(338.36 81.901)">
        <path id="Path_8143" data-name="Path 8143" class="cls-6" d="M293.7,97.223l9.917-1.373-1.526-11.595-9.917,1.373c-.305-.915-.763-1.983-1.068-2.9l8.086-5.645-6.713-9.459-8.086,5.645c-.763-.763-1.526-1.373-2.288-2.136l4.577-8.849-10.374-5.34-4.577,8.849a20.7,20.7,0,0,0-4.424-.915V54.2H255.711V65.49l-3.2.915-5.035-8.544L237.4,63.811l5.035,8.544c-.763.763-1.526,1.373-2.288,2.136L231.759,69.3l-6.1,9.917,8.391,5.187a21.193,21.193,0,0,0-.915,2.9l-9.917-.763L222.3,98.138l9.917.763c.153,1.068.305,2.136.458,3.051l-9.154,3.814,4.577,10.679,9.154-3.814c.61.915,1.22,1.678,1.831,2.594l-6.255,7.628,9,7.476,6.255-7.628c.915.458,1.831.915,2.9,1.373l-2.136,9.764,11.442,2.441,2.136-9.764h.763a13.124,13.124,0,0,0,2.441-.153l2.594,9.611,11.29-3.051-2.594-9.612a24.683,24.683,0,0,0,2.746-1.526l6.713,7.323,8.544-7.933-6.713-7.323a15.118,15.118,0,0,0,1.678-2.594l9.306,3.356,3.967-10.985-9.306-3.356A10.009,10.009,0,0,1,293.7,97.223Zm-30.818,14.8a16.477,16.477,0,1,1,16.477-16.477A16.408,16.408,0,0,1,262.882,112.022Z" transform="translate(-222.3 -54.2)"/>
        <path id="Path_8144" data-name="Path 8144" class="cls-7" d="M271.054,86.977A16.477,16.477,0,1,1,254.577,70.5,16.408,16.408,0,0,1,271.054,86.977Z" transform="translate(-213.995 -45.632)"/>
      </g>
      <g id="Group_1357" data-name="Group 1357" transform="translate(92.58 65.729)">
        <path id="Path_8145" data-name="Path 8145" class="cls-6" d="M132.9,86.623l9.917-1.373L141.3,73.655l-9.917,1.373c-.305-.915-.763-1.983-1.068-2.9l8.086-5.645-6.713-9.459L123.6,62.67c-.763-.763-1.526-1.373-2.288-2.136l4.577-8.849-10.374-5.34-4.577,8.849a20.694,20.694,0,0,0-4.424-.915V43.6H94.916V54.89l-3.2.915-5.34-8.544L76.3,53.211l5.035,8.544c-.763.763-1.526,1.373-2.288,2.136L70.659,58.7l-6.1,9.917,8.391,5.187a21.2,21.2,0,0,0-.915,2.9l-9.917-.763L61.2,87.538l9.917.763c.153,1.068.305,2.136.458,3.051l-9.154,3.814L67,105.846l9.154-3.814c.61.915,1.221,1.678,1.831,2.594l-6.255,7.628,9,7.476,6.255-7.628c.915.458,1.831.915,2.9,1.373l-2.136,9.764,11.442,2.441,2.136-9.764h.763a13.124,13.124,0,0,0,2.441-.153l2.594,9.612,11.29-3.051-2.594-9.612a24.685,24.685,0,0,0,2.746-1.526l6.713,7.323,8.544-7.933-6.713-7.323a15.116,15.116,0,0,0,1.678-2.594l9.306,3.356,3.967-10.985-9.306-3.356C132.752,88.759,132.9,87.691,132.9,86.623Zm-30.818,14.8a16.477,16.477,0,1,1,16.477-16.477A16.408,16.408,0,0,1,102.087,101.422Z" transform="translate(-61.2 -43.6)"/>
        <path id="Path_8146" data-name="Path 8146" class="cls-7" d="M110.154,76.377A16.477,16.477,0,1,1,93.677,59.9,16.408,16.408,0,0,1,110.154,76.377Z" transform="translate(-52.79 -35.032)"/>
      </g>
      <path id="Path_8147" data-name="Path 8147" class="cls-3" d="M141.674,271.8l4.577-.153-.305-8.238-5.187.153a22.054,22.054,0,0,0-1.678-4.424l4.424-2.594-4.119-7.171-4.882,2.9a31.868,31.868,0,0,0-3.356-3.051l2.9-4.577-7.018-4.272-3.051,4.882a33.126,33.126,0,0,0-3.662-1.068V239h-8.238v4.424l-3.662.458-1.831-3.967-7.476,3.509,1.678,3.509a45.418,45.418,0,0,0-4.424,3.051L93.312,247.7l-5.035,6.56,2.594,1.983a25.663,25.663,0,0,0-2.441,5.035l-3.356-.61L83.7,268.75l2.9.458v1.526a34.807,34.807,0,0,0,.305,4.119l-3.051,1.068,2.594,7.781,2.9-.915a32.593,32.593,0,0,0,3.051,4.882l-2.288,2.441,5.95,5.645,2.288-2.441a25.236,25.236,0,0,0,4.882,2.746l-1.068,3.662,7.933,2.136,1.068-3.661a17.516,17.516,0,0,0,2.9.153h1.373l.458,3.051,8.086-1.221-.61-3.509a29.177,29.177,0,0,0,4.882-2.441l2.136,2.9,6.56-4.882-2.441-3.2a43.2,43.2,0,0,0,3.051-4.272l3.662,1.678,3.509-7.476-4.119-1.983A12.648,12.648,0,0,0,141.674,271.8Zm-26.546,3.509a4.729,4.729,0,1,1,4.729-4.729A4.753,4.753,0,0,1,115.128,275.31Z" transform="translate(43.207 124.838)"/>
      <path id="Path_8148" data-name="Path 8148" class="cls-6" d="M76.033,262.267a3.967,3.967,0,1,1-3.967-3.967A4.039,4.039,0,0,1,76.033,262.267Z" transform="translate(35.007 134.983)"/>
      <path id="Path_8149" data-name="Path 8149" class="cls-6" d="M285.933,192.367a3.967,3.967,0,1,1-3.967-3.967A3.848,3.848,0,0,1,285.933,192.367Z" transform="translate(145.338 98.241)"/>
      <path id="Path_8150" data-name="Path 8150" class="cls-6" d="M282.133,123.367a3.967,3.967,0,1,1-3.967-3.967A4.039,4.039,0,0,1,282.133,123.367Z" transform="translate(143.34 61.972)"/>
      <path id="Path_8151" data-name="Path 8151" class="cls-6" d="M297.333,58.467a3.967,3.967,0,1,1-3.967-3.967A3.939,3.939,0,0,1,297.333,58.467Z" transform="translate(151.33 27.859)"/>
      <path id="Path_8152" data-name="Path 8152" class="cls-6" d="M239.633,12.967a3.967,3.967,0,0,1-7.933,0A4.039,4.039,0,0,1,235.667,9,3.939,3.939,0,0,1,239.633,12.967Z" transform="translate(121.001 3.942)"/>
      <path id="Path_8153" data-name="Path 8153" class="cls-6" d="M115.533,28.167a3.967,3.967,0,1,1-3.967-3.967A3.939,3.939,0,0,1,115.533,28.167Z" transform="translate(55.77 11.932)"/>
      <path id="Path_8154" data-name="Path 8154" class="cls-6" d="M201.133,71.867a3.967,3.967,0,1,1-3.967-3.967A4.039,4.039,0,0,1,201.133,71.867Z" transform="translate(100.764 34.902)"/>
      <path id="Path_8155" data-name="Path 8155" class="cls-6" d="M31.733,86.467A3.967,3.967,0,1,1,27.767,82.5,4.039,4.039,0,0,1,31.733,86.467Z" transform="translate(11.722 42.576)"/>
      <path id="Path_8156" data-name="Path 8156" class="cls-6" d="M268.733,138.867a3.967,3.967,0,1,1-3.967-3.967A4.039,4.039,0,0,1,268.733,138.867Z" transform="translate(136.297 70.12)"/>
      <path id="Path_8157" data-name="Path 8157" class="cls-6" d="M257.633,225.567a3.967,3.967,0,1,1-3.967-3.967A4.039,4.039,0,0,1,257.633,225.567Z" transform="translate(130.462 115.692)"/>
      <path id="Path_8158" data-name="Path 8158" class="cls-6" d="M144.133,314.367a3.967,3.967,0,1,1-3.967-3.967A4.039,4.039,0,0,1,144.133,314.367Z" transform="translate(70.803 162.368)"/>
      <path id="Path_8159" data-name="Path 8159" class="cls-6" d="M24.633,274.067a3.967,3.967,0,1,1-3.967-3.967A4.039,4.039,0,0,1,24.633,274.067Z" transform="translate(7.99 141.185)"/>
      <path id="Path_8160" data-name="Path 8160" class="cls-6" d="M9.433,188.667a4.039,4.039,0,0,1-3.967,3.967,3.967,3.967,0,0,1,0-7.933A4.039,4.039,0,0,1,9.433,188.667Z" transform="translate(0 96.296)"/>
      <path id="Path_8161" data-name="Path 8161" class="cls-6" d="M135.833,53.967A3.967,3.967,0,1,1,131.867,50,4.147,4.147,0,0,1,135.833,53.967Z" transform="translate(66.44 25.493)"/>
      <path id="Path_8162" data-name="Path 8162" class="cls-6" d="M361.133,194.867a3.967,3.967,0,1,1-3.967-3.967A4.147,4.147,0,0,1,361.133,194.867Z" transform="translate(184.865 99.555)"/>
      <path id="Path_8163" data-name="Path 8163" class="cls-6" d="M264.233,339.667a3.967,3.967,0,1,1-3.967-3.967A3.939,3.939,0,0,1,264.233,339.667Z" transform="translate(133.931 175.667)"/>
      <path id="Path_8164" data-name="Path 8164" class="cls-6" d="M274.633,240.867a3.967,3.967,0,1,1-3.967-3.967A3.848,3.848,0,0,1,274.633,240.867Z" transform="translate(139.398 123.734)"/>
      <g id="Group_1358" data-name="Group 1358" transform="translate(77.324 346.141)">
        <line id="Line_626" data-name="Line 626" class="cls-7" x2="45.311" transform="translate(0 13.883)"/>
        <line id="Line_627" data-name="Line 627" class="cls-7" x2="27.919" transform="translate(15.561)"/>
      </g>
      <g id="Group_1359" data-name="Group 1359" transform="translate(378.331 37.047)">
        <line id="Line_628" data-name="Line 628" class="cls-7" x1="45.311" transform="translate(0 13.883)"/>
        <line id="Line_629" data-name="Line 629" class="cls-7" x1="27.919" transform="translate(1.831)"/>
      </g>
      <line id="Line_630" data-name="Line 630" class="cls-7" x1="13.731" transform="translate(401.063 498.246)"/>
      <line id="Line_631" data-name="Line 631" class="cls-7" x1="13.731" transform="translate(70.611 475.514)"/>
      <line id="Line_632" data-name="Line 632" class="cls-7" x1="13.731" transform="translate(363.228 236.905)"/>
      <line id="Line_633" data-name="Line 633" class="cls-7" x1="13.731" transform="translate(117.906 44.065)"/>
      <line id="Line_634" data-name="Line 634" class="cls-7" x1="13.731" transform="translate(384.129 266.045)"/>
      <line id="Line_635" data-name="Line 635" class="cls-7" x1="13.731" transform="translate(387.333 471.548)"/>
      <line id="Line_636" data-name="Line 636" class="cls-7" x1="13.731" transform="translate(346.293 189.305)"/>
      <line id="Line_637" data-name="Line 637" class="cls-7" x1="13.731" transform="translate(187.475 8.823)"/>
      <line id="Line_638" data-name="Line 638" class="cls-7" x1="13.731" transform="translate(522.809 257.959)"/>
      <line id="Line_639" data-name="Line 639" class="cls-7" x1="13.731" transform="translate(245.906 426.694)"/>
      <line id="Line_640" data-name="Line 640" class="cls-7" x1="13.731" transform="translate(267.418 53.829)"/>
      <line id="Line_641" data-name="Line 641" class="cls-7" x1="13.731" transform="translate(113.176 189)"/>
      <line id="Line_642" data-name="Line 642" class="cls-7" x1="13.731" transform="translate(161.081 239.346)"/>
      <g id="Group_1360" data-name="Group 1360" transform="translate(170.235 531.81)">
        <line id="Line_643" data-name="Line 643" class="cls-7" x2="45.311" transform="translate(0 13.883)"/>
        <line id="Line_644" data-name="Line 644" class="cls-7" x2="27.919" transform="translate(15.561)"/>
      </g>
      <g id="Group_1361" data-name="Group 1361" transform="translate(6.077 252.162)">
        <line id="Line_645" data-name="Line 645" class="cls-7" x2="45.311" transform="translate(0 13.883)"/>
        <line id="Line_646" data-name="Line 646" class="cls-7" x2="28.072" transform="translate(15.409)"/>
      </g>
      <g id="Group_1362" data-name="Group 1362" transform="translate(154.368 137.892)">
        <line id="Line_647" data-name="Line 647" class="cls-7" x2="45.311" transform="translate(0 13.883)"/>
        <line id="Line_648" data-name="Line 648" class="cls-7" x2="27.919" transform="translate(15.561)"/>
      </g>
    </g>
    <g id="automobile" transform="translate(-11685.696 2366)">
      <g id="Group_1371" data-name="Group 1371" transform="translate(0 27.143)">
        <g id="Group_1370" data-name="Group 1370">
          <path id="Path_8127-2" data-name="Path 8127" class="cls-9" d="M101.639,204.154l-4.97-17.167a3.393,3.393,0,0,0-3.244-2.529H74.644a3.49,3.49,0,0,0-3.393,3.571v20.179H57.635a8.4,8.4,0,0,0,1.569-3.393h6.957a1.7,1.7,0,0,0,1.7-1.7V191.243a1.7,1.7,0,0,0-1.328-1.656L51.742,186.3l-9.829-9.829a1.7,1.7,0,0,0-1.2-.5H11.875a1.7,1.7,0,0,0-1.2.5L.5,186.652a1.7,1.7,0,0,0-.5,1.2v13.572a1.7,1.7,0,0,0,1.284,1.646l5.639,1.41a8.381,8.381,0,0,0,1.6,3.731H3.393a1.7,1.7,0,0,0-1.7,1.7V221.78a1.7,1.7,0,0,0,1.7,1.7h8.652a8.482,8.482,0,0,0,16.625,0H32.4a8.482,8.482,0,0,0,16.625,0H78.207a8.482,8.482,0,0,0,16.625,0h5.259a1.7,1.7,0,0,0,1.7-1.7V205.2a3.774,3.774,0,0,0-.148-1.043Zm-37.174-2.731H59.206a8.338,8.338,0,0,0-.548-1.7h5.807ZM50.894,189.588,64.465,192.6v3.732H55.983v.044a8.394,8.394,0,0,0-5.089-1.741Zm5.089,13.531a5.089,5.089,0,1,1-5.089-5.089A5.089,5.089,0,0,1,55.983,203.119Zm-28.84-23.75H40.013l6.786,6.786H27.143Zm0,10.179H47.5v5.809a8.506,8.506,0,0,0-4.92,6.067H27.143Zm17.009,18.661H22.01a8.4,8.4,0,0,0,1.569-3.393h19a8.406,8.406,0,0,0,1.571,3.393Zm-31.575-28.84H23.75v6.786H5.792ZM7.083,201.021h0L3.393,200.1v-10.55H23.75v11.875h-.17a8.461,8.461,0,0,0-16.5-.4Zm13.275,2.1a5.089,5.089,0,1,1-5.089-5.089,5.089,5.089,0,0,1,5.089,5.089Zm0,23.75a5.089,5.089,0,1,1,5.089-5.089,5.089,5.089,0,0,1-5.089,5.089Zm20.357,0a5.089,5.089,0,1,1,5.089-5.089,5.089,5.089,0,0,1-5.089,5.089Zm30.536-6.786H49.028a8.482,8.482,0,0,0-16.625,0H28.67a8.482,8.482,0,0,0-16.625,0H5.089V211.6H71.251Zm24.076-25.514,1.978,6.852H81.43v-6.786H95a1.612,1.612,0,0,0,.326-.066Zm-8.808,32.3a5.089,5.089,0,1,1,5.089-5.089A5.089,5.089,0,0,1,86.519,226.87ZM98.394,211.6H95v-1.7h3.393Zm0-5.089H93.305a1.7,1.7,0,0,0-1.7,1.7V213.3a1.7,1.7,0,0,0,1.7,1.7h5.089v5.089H94.832a8.482,8.482,0,0,0-16.625,0H74.644V188.029c0-.109.042-.17.012-.178l18.754.08.957,3.313H79.733a1.7,1.7,0,0,0-1.7,1.7v10.179a1.7,1.7,0,0,0,1.7,1.7H98.284l.11.382Z" transform="translate(0 -175.976)"/>
        </g>
      </g>
      <g id="Group_1373" data-name="Group 1373" transform="translate(8.482 16.965)">
        <g id="Group_1372" data-name="Group 1372">
          <rect id="Rectangle_3012-2" data-name="Rectangle 3012" class="cls-9" width="13.572" height="3.393"/>
        </g>
      </g>
      <g id="Group_1375" data-name="Group 1375" transform="translate(64.465 25.447)">
        <g id="Group_1374" data-name="Group 1374">
          <rect id="Rectangle_3013-2" data-name="Rectangle 3013" class="cls-9" width="13.572" height="3.393"/>
        </g>
      </g>
      <g id="Group_1377" data-name="Group 1377" transform="translate(57.679 25.447)">
        <g id="Group_1376" data-name="Group 1376">
          <rect id="Rectangle_3014-2" data-name="Rectangle 3014" class="cls-9" width="3.393" height="3.393"/>
        </g>
      </g>
      <g id="Group_1379" data-name="Group 1379" transform="translate(1.696 16.965)">
        <g id="Group_1378" data-name="Group 1378">
          <rect id="Rectangle_3015-2" data-name="Rectangle 3015" class="cls-9" width="3.393" height="3.393"/>
        </g>
      </g>
      <g id="Group_1381" data-name="Group 1381" transform="translate(37.322 0)">
        <g id="Group_1380" data-name="Group 1380">
          <rect id="Rectangle_3016-2" data-name="Rectangle 3016" class="cls-9" width="3.393" height="3.393"/>
        </g>
      </g>
      <g id="Group_1383" data-name="Group 1383" transform="translate(44.108 0)">
        <g id="Group_1382" data-name="Group 1382">
          <rect id="Rectangle_3017" data-name="Rectangle 3017" class="cls-9" width="13.572" height="3.393"/>
        </g>
      </g>
      <g id="Group_1385" data-name="Group 1385" transform="translate(30.536 42.411)">
        <g id="Group_1384" data-name="Group 1384">
          <rect id="Rectangle_3018" data-name="Rectangle 3018" class="cls-9" width="1.696" height="3.393"/>
        </g>
      </g>
    </g>
    <g id="fright" transform="translate(-11252.574 2353)">
      <g id="Group_14059" data-name="Group 14059" transform="translate(12.581 14.379)">
        <g id="Group_14058" data-name="Group 14058">
          <path id="Path_7682" data-name="Path 7682" class="cls-9" d="M101.071,68.316a41.338,41.338,0,1,0,41.338,41.338A41.386,41.386,0,0,0,101.071,68.316Zm0,79.082a37.744,37.744,0,1,1,37.744-37.744A37.786,37.786,0,0,1,101.071,147.4Z" transform="translate(-59.733 -68.316)"/>
        </g>
      </g>
      <g id="Group_14061" data-name="Group 14061" transform="translate(44.999 17.974)">
        <g id="Group_14060" data-name="Group 14060">
          <path id="Path_7683" data-name="Path 7683" class="cls-9" d="M239.916,85.609a1.818,1.818,0,0,0-.519-.151l-.415-.056a1.777,1.777,0,0,0-1.664.688,1.8,1.8,0,0,0-.232,1.786c1.235,2.951,2.705,8.916.825,10.286l-4.166,1.666a9.307,9.307,0,0,0-5.769,7.572l-.027.207a1.116,1.116,0,0,1-.929.96,1.274,1.274,0,0,1-1.382-.59L223.853,105a3.431,3.431,0,0,0-6.051.3c-1.6,3.427-3.62,8.374-4.109,12.469a6.559,6.559,0,0,0,.654,3.713l2.072,4.145a9.054,9.054,0,0,0,3.262,3.595,23.571,23.571,0,0,1,5.207,4.3,10.813,10.813,0,0,0,6.579,3.859c-.1,3.366.12,8.9,2.412,11.345a4.132,4.132,0,0,0,2.919,1.361,7.754,7.754,0,0,0,1.014.063,8.759,8.759,0,0,0,5.6-1.984c2.836-2.344,4.29-6.466,4.323-12.256l2.574-11.586.978,1.628a5.473,5.473,0,0,0,7.976,1.561l3.929-2.949a1.8,1.8,0,0,0,.719-1.438,41.485,41.485,0,0,0-23.99-37.518ZM257.1,124.638a1.879,1.879,0,0,1-2.738-.537l-1.864-3.108a2.907,2.907,0,0,0-5.331.867l-2.991,13.46a1.772,1.772,0,0,0-.042.39c0,4.668-1.028,8-2.973,9.648a5.121,5.121,0,0,1-3.875,1.168c-.232-.042-.408.144-.785-.259-1.12-1.2-1.685-5.367-1.377-10.148a2.078,2.078,0,0,0-2.081-2.207,7.066,7.066,0,0,1-5.39-2.678,26.45,26.45,0,0,0-6.057-5.047,5.44,5.44,0,0,1-1.964-2.162l-2.072-4.145a2.97,2.97,0,0,1-.3-1.682c.44-3.677,2.428-8.415,3.665-11.088l1.63,2.716a4.846,4.846,0,0,0,5.185,2.261,4.7,4.7,0,0,0,3.769-3.992l.038-.284a5.7,5.7,0,0,1,3.53-4.647l4.333-1.733a1.9,1.9,0,0,0,.264-.131c3.415-2.074,2.973-7.038,2.076-10.672A37.911,37.911,0,0,1,260.3,122.238Z" transform="translate(-213.649 -85.385)"/>
        </g>
      </g>
      <g id="Group_14063" data-name="Group 14063" transform="translate(13.936 60.751)">
        <g id="Group_14062" data-name="Group 14062">
          <path id="Path_7684" data-name="Path 7684" class="cls-9" d="M97.674,308.38l-1.089-1.087A14.549,14.549,0,0,0,92,304.19l-5.543-2.376a6.062,6.062,0,0,1-3.677-5.579v-2.705a5.048,5.048,0,0,0-6.821-4.725l-8.631,3.235a1.8,1.8,0,0,0-1.105,2.15,41.571,41.571,0,0,0,31.829,29.8,1.826,1.826,0,0,0,.352.034,1.8,1.8,0,0,0,1.729-1.3l.658-2.3A12.267,12.267,0,0,0,97.674,308.38Zm-.337,11.05-.194.676a37.991,37.991,0,0,1-26.986-25.285l7.067-2.648a1.453,1.453,0,0,1,1.964,1.358v2.705a9.652,9.652,0,0,0,5.855,8.882l5.543,2.376a11.009,11.009,0,0,1,3.456,2.34l1.089,1.087a8.671,8.671,0,0,1,2.206,8.509Z" transform="translate(-66.164 -288.484)"/>
        </g>
      </g>
      <g id="Group_14065" data-name="Group 14065" transform="translate(12.64 19.949)">
        <g id="Group_14064" data-name="Group 14064">
          <path id="Path_7685" data-name="Path 7685" class="cls-9" d="M82.449,95.427a1.8,1.8,0,0,0-2.317-.41,41.278,41.278,0,0,0-20.119,33.3,1.8,1.8,0,0,0,1.794,1.892,1.835,1.835,0,0,0,.651-.12l11.149-4.4a5.445,5.445,0,0,0,3.14-6.77,1.839,1.839,0,0,1,.446-1.887l5.18-5.18a9.294,9.294,0,0,0,2.743-6.619v-2.338A11.891,11.891,0,0,0,82.449,95.427Zm-.929,9.8a5.721,5.721,0,0,1-1.691,4.078l-5.18,5.179a5.408,5.408,0,0,0-1.312,5.564,1.845,1.845,0,0,1-1.064,2.3l-8.415,3.336A37.678,37.678,0,0,1,80.533,99.007a8.207,8.207,0,0,1,.987,3.882v2.338Z" transform="translate(-60.011 -94.763)"/>
        </g>
      </g>
      <g id="Group_14067" data-name="Group 14067" transform="translate(46.733 0)">
        <g id="Group_14066" data-name="Group 14066">
          <path id="Path_7686" data-name="Path 7686" class="cls-9" d="M229.066.048a54.72,54.72,0,0,0-5.558.284,1.8,1.8,0,0,0,.168,3.587,1.6,1.6,0,0,0,.185-.011,51.692,51.692,0,0,1,5.206-.265,1.8,1.8,0,1,0,0-3.595Z" transform="translate(-221.88 -0.048)"/>
        </g>
      </g>
      <g id="Group_14069" data-name="Group 14069" transform="translate(0 50.263)">
        <g id="Group_14068" data-name="Group 14068">
          <path id="Path_7687" data-name="Path 7687" class="cls-9" d="M4.3,250.8a50.9,50.9,0,0,1-.708-8.458q0-.9.032-1.8a1.8,1.8,0,0,0-3.593-.124Q0,241.38,0,242.345A54.612,54.612,0,0,0,.756,251.4a1.8,1.8,0,0,0,1.769,1.5,1.752,1.752,0,0,0,.3-.025A1.8,1.8,0,0,0,4.3,250.8Z" transform="translate(0 -238.688)"/>
        </g>
      </g>
      <g id="Group_14071" data-name="Group 14071" transform="translate(3.576 71.135)">
        <g id="Group_14070" data-name="Group 14070">
          <path id="Path_7688" data-name="Path 7688" class="cls-9" d="M25.161,348.059a50.27,50.27,0,0,1-4.711-9.13,1.8,1.8,0,0,0-3.347,1.312,53.934,53.934,0,0,0,5.047,9.783,1.8,1.8,0,1,0,3.011-1.964Z" transform="translate(-16.979 -337.787)"/>
        </g>
      </g>
      <g id="Group_14073" data-name="Group 14073" transform="translate(1.483 29.7)">
        <g id="Group_14072" data-name="Group 14072">
          <path id="Path_7689" data-name="Path 7689" class="cls-9" d="M13.185,141.235a1.8,1.8,0,0,0-2.4.848,53.6,53.6,0,0,0-3.7,10.372,1.8,1.8,0,0,0,1.319,2.173,1.853,1.853,0,0,0,.428.05,1.8,1.8,0,0,0,1.745-1.371,50.041,50.041,0,0,1,3.449-9.677,1.8,1.8,0,0,0-.848-2.4Z" transform="translate(-7.04 -141.06)"/>
        </g>
      </g>
      <g id="Group_14075" data-name="Group 14075" transform="translate(10.597 12.84)">
        <g id="Group_14074" data-name="Group 14074">
          <path id="Path_7690" data-name="Path 7690" class="cls-9" d="M60.73,61.628a1.8,1.8,0,0,0-2.536-.173A54.42,54.42,0,0,0,50.68,69.5a1.8,1.8,0,1,0,2.861,2.175,50.653,50.653,0,0,1,7.017-7.509A1.8,1.8,0,0,0,60.73,61.628Z" transform="translate(-50.313 -61.012)"/>
        </g>
      </g>
      <g id="Group_14077" data-name="Group 14077" transform="translate(32.806 100.55)">
        <g id="Group_14076" data-name="Group 14076">
          <path id="Path_7691" data-name="Path 7691" class="cls-9" d="M168.1,480.377a50.181,50.181,0,0,1-9.88-2.807,1.8,1.8,0,1,0-1.333,3.338,53.634,53.634,0,0,0,10.589,3.009,1.84,1.84,0,0,0,.313.027,1.8,1.8,0,0,0,.311-3.566Z" transform="translate(-155.758 -477.441)"/>
        </g>
      </g>
      <g id="Group_14079" data-name="Group 14079" transform="translate(53.629 102.837)">
        <g id="Group_14078" data-name="Group 14078">
          <path id="Path_7692" data-name="Path 7692" class="cls-9" d="M268.746,489.684a1.8,1.8,0,0,0-2.164-1.334,50.435,50.435,0,0,1-10.189,1.339,1.8,1.8,0,0,0,.05,3.593c.016,0,.034,0,.054,0a54.077,54.077,0,0,0,10.915-1.432A1.8,1.8,0,0,0,268.746,489.684Z" transform="translate(-254.621 -488.302)"/>
        </g>
      </g>
      <g id="Group_14081" data-name="Group 14081" transform="translate(26.548 2.443)">
        <g id="Group_14080" data-name="Group 14080">
          <path id="Path_7693" data-name="Path 7693" class="cls-9" d="M139.315,12.9a1.8,1.8,0,0,0-2.257-1.168,53.723,53.723,0,0,0-10.1,4.4,1.8,1.8,0,1,0,1.767,3.131,50.019,50.019,0,0,1,9.418-4.105A1.8,1.8,0,0,0,139.315,12.9Z" transform="translate(-126.048 -11.646)"/>
        </g>
      </g>
      <g id="Group_14083" data-name="Group 14083" transform="translate(15.151 88.863)">
        <g id="Group_14082" data-name="Group 14082">
          <path id="Path_7694" data-name="Path 7694" class="cls-9" d="M82.952,429a50.638,50.638,0,0,1-7.946-6.515,1.8,1.8,0,1,0-2.549,2.536A54.4,54.4,0,0,0,80.966,432a1.8,1.8,0,0,0,1.984-3Z" transform="translate(-71.934 -421.952)"/>
        </g>
      </g>
      <g id="Group_14085" data-name="Group 14085" transform="translate(74.333 96.737)">
        <g id="Group_14084" data-name="Group 14084">
          <path id="Path_7695" data-name="Path 7695" class="cls-9" d="M361,460.205a1.8,1.8,0,0,0-2.47-.606,50.5,50.5,0,0,1-4.583,2.461,1.8,1.8,0,0,0,1.534,3.252,53.755,53.755,0,0,0,4.912-2.637,1.8,1.8,0,0,0,.606-2.47Z" transform="translate(-352.918 -459.339)"/>
        </g>
      </g>
      <g id="Group_14087" data-name="Group 14087" transform="translate(88.068 79.081)">
        <g id="Group_14086" data-name="Group 14086">
          <path id="Path_7696" data-name="Path 7696" class="cls-9" d="M437.525,376.206A1.8,1.8,0,0,0,435,375.89l-16.176,12.581a1.8,1.8,0,0,0-.694,1.42v5.392a1.8,1.8,0,1,0,3.594,0v-4.513l15.481-12.042A1.8,1.8,0,0,0,437.525,376.206Z" transform="translate(-418.134 -375.511)"/>
        </g>
      </g>
      <g id="Group_14089" data-name="Group 14089" transform="translate(82.677 89.865)">
        <g id="Group_14088" data-name="Group 14088">
          <path id="Path_7697" data-name="Path 7697" class="cls-9" d="M400.3,428.6l-5.392-1.8a1.8,1.8,0,1,0-1.137,3.41l5.392,1.8a1.8,1.8,0,1,0,1.137-3.41Z" transform="translate(-392.537 -426.71)"/>
        </g>
      </g>
      <g id="Group_14091" data-name="Group 14091" transform="translate(88.067 79.079)">
        <g id="Group_14090" data-name="Group 14090">
          <path id="Path_7698" data-name="Path 7698" class="cls-9" d="M434.174,391.01l-3.595-8.987a1.8,1.8,0,0,0-.744-.873l-8.987-5.392A1.8,1.8,0,1,0,419,378.84l8.467,5.081,3.37,8.425a1.8,1.8,0,0,0,1.67,1.13,1.742,1.742,0,0,0,.667-.131A1.8,1.8,0,0,0,434.174,391.01Z" transform="translate(-418.126 -375.501)"/>
        </g>
      </g>
    </g>
    <g id="logistic" transform="translate(-11592.142 2528.806)">
      <g id="Group_14093" data-name="Group 14093" transform="translate(0 0)">
        <g id="Group_14092" data-name="Group 14092">
          <path id="Path_7699" data-name="Path 7699" class="cls-9" d="M89.077,88.581h-3.3V67.137a1.65,1.65,0,0,0-1.65-1.65h-3.3V17.65A1.65,1.65,0,0,0,79.18,16H26.393a1.65,1.65,0,0,0-1.65,1.65v9.9a1.65,1.65,0,0,0,1.65,1.65h8.248v8.482a6.578,6.578,0,0,0-4.861,5.5l-7.717,6.173a1.65,1.65,0,0,0-.619,1.288v6.6a1.65,1.65,0,0,0,3.3,0V51.433l5.638-4.51a6.554,6.554,0,0,0,11.818,0l5.638,4.51v5.807a1.65,1.65,0,0,0,3.3,0v-6.6a1.65,1.65,0,0,0-.619-1.288L42.8,43.18a6.578,6.578,0,0,0-4.861-5.5V29.2H67.633V65.487h-13.2a1.65,1.65,0,0,0-1.65,1.65V88.581h-6.6V67.137a1.65,1.65,0,0,0-1.65-1.65H14.846a1.65,1.65,0,0,0-1.65,1.65V88.581H9.9a9.9,9.9,0,0,0,0,19.795h79.18a9.9,9.9,0,0,0,0-19.795ZM31.342,25.9h-3.3V19.3h3.3ZM39.59,44.043a3.3,3.3,0,1,1-3.3-3.3A3.3,3.3,0,0,1,39.59,44.043ZM37.94,25.9h-3.3V19.3h3.3Zm3.3,0V19.3H77.53v6.6ZM77.53,29.2V65.487h-6.6V29.2ZM65.983,68.786h6.6v6.6h-6.6Zm-9.9,0h6.6v8.248a1.65,1.65,0,0,0,1.65,1.65h9.9a1.65,1.65,0,0,0,1.65-1.65V68.786h6.6V88.581H56.086Zm-29.692,0h6.6v6.6h-6.6Zm-9.9,0h6.6v8.248a1.65,1.65,0,0,0,1.65,1.65h9.9a1.65,1.65,0,0,0,1.65-1.65V68.786h6.6V88.581H16.5Zm72.581,36.291H9.9a6.6,6.6,0,0,1,0-13.2h79.18a6.6,6.6,0,0,1,0,13.2Z" transform="translate(0 -16)"/>
        </g>
      </g>
      <g id="Group_14095" data-name="Group 14095" transform="translate(4.949 77.53)">
        <g id="Group_14094" data-name="Group 14094">
          <path id="Path_7700" data-name="Path 7700" class="cls-9" d="M28.949,392a4.949,4.949,0,1,0,4.949,4.949A4.949,4.949,0,0,0,28.949,392Zm0,6.6a1.65,1.65,0,1,1,1.65-1.65A1.65,1.65,0,0,1,28.949,398.6Z" transform="translate(-24 -392)"/>
        </g>
      </g>
      <g id="Group_14097" data-name="Group 14097" transform="translate(18.145 77.53)">
        <g id="Group_14096" data-name="Group 14096">
          <path id="Path_7701" data-name="Path 7701" class="cls-9" d="M92.949,392a4.949,4.949,0,1,0,4.949,4.949A4.949,4.949,0,0,0,92.949,392Zm0,6.6a1.65,1.65,0,1,1,1.65-1.65A1.65,1.65,0,0,1,92.949,398.6Z" transform="translate(-88 -392)"/>
        </g>
      </g>
      <g id="Group_14099" data-name="Group 14099" transform="translate(31.342 77.53)">
        <g id="Group_14098" data-name="Group 14098">
          <path id="Path_7702" data-name="Path 7702" class="cls-9" d="M156.949,392a4.949,4.949,0,1,0,4.949,4.949A4.949,4.949,0,0,0,156.949,392Zm0,6.6a1.65,1.65,0,1,1,1.65-1.65A1.65,1.65,0,0,1,156.949,398.6Z" transform="translate(-152 -392)"/>
        </g>
      </g>
      <g id="Group_14101" data-name="Group 14101" transform="translate(44.539 77.53)">
        <g id="Group_14100" data-name="Group 14100">
          <path id="Path_7703" data-name="Path 7703" class="cls-9" d="M220.949,392a4.949,4.949,0,1,0,4.949,4.949A4.949,4.949,0,0,0,220.949,392Zm0,6.6a1.65,1.65,0,1,1,1.65-1.65A1.65,1.65,0,0,1,220.949,398.6Z" transform="translate(-216 -392)"/>
        </g>
      </g>
      <g id="Group_14103" data-name="Group 14103" transform="translate(57.735 77.53)">
        <g id="Group_14102" data-name="Group 14102">
          <path id="Path_7704" data-name="Path 7704" class="cls-9" d="M284.949,392a4.949,4.949,0,1,0,4.949,4.949A4.949,4.949,0,0,0,284.949,392Zm0,6.6a1.65,1.65,0,1,1,1.65-1.65A1.65,1.65,0,0,1,284.949,398.6Z" transform="translate(-280 -392)"/>
        </g>
      </g>
      <g id="Group_14105" data-name="Group 14105" transform="translate(70.932 77.53)">
        <g id="Group_14104" data-name="Group 14104">
          <path id="Path_7705" data-name="Path 7705" class="cls-9" d="M348.949,392a4.949,4.949,0,1,0,4.949,4.949A4.949,4.949,0,0,0,348.949,392Zm0,6.6a1.65,1.65,0,1,1,1.65-1.65A1.65,1.65,0,0,1,348.949,398.6Z" transform="translate(-344 -392)"/>
        </g>
      </g>
      <g id="Group_14107" data-name="Group 14107" transform="translate(84.128 77.53)">
        <g id="Group_14106" data-name="Group 14106">
          <path id="Path_7706" data-name="Path 7706" class="cls-9" d="M412.949,392a4.949,4.949,0,1,0,4.949,4.949A4.949,4.949,0,0,0,412.949,392Zm0,6.6a1.65,1.65,0,1,1,1.65-1.65A1.65,1.65,0,0,1,412.949,398.6Z" transform="translate(-408 -392)"/>
        </g>
      </g>
      <g id="Group_14109" data-name="Group 14109" transform="translate(34.641 65.983)">
        <g id="Group_14108" data-name="Group 14108">
          <path id="Path_7707" data-name="Path 7707" class="cls-9" d="M172.949,336h-3.3a1.65,1.65,0,0,0,0,3.3h3.3a1.65,1.65,0,0,0,0-3.3Z" transform="translate(-168 -336)"/>
        </g>
      </g>
      <g id="Group_14111" data-name="Group 14111" transform="translate(74.231 65.983)">
        <g id="Group_14110" data-name="Group 14110">
          <path id="Path_7708" data-name="Path 7708" class="cls-9" d="M364.949,336h-3.3a1.65,1.65,0,1,0,0,3.3h3.3a1.65,1.65,0,0,0,0-3.3Z" transform="translate(-360 -336)"/>
        </g>
      </g>
    </g>
    <g id="warehouse" transform="translate(-11295.743 2213.475)">
      <g id="Group_1387" data-name="Group 1387" transform="translate(0 0)">
        <g id="Group_1386" data-name="Group 1386">
          <path id="Path_8128-2" data-name="Path 8128" class="cls-9" d="M80.654,83.227H84.8V61.134H80.654V24.858l2.086.671,4-8.007L43.372,3.064,0,17.521l4,8.007,2.086-.671V85.989H.566V88.75H86.177V85.989H80.654ZM82.035,63.9v16.57H80.654V63.9ZM37.213,85.989h-18.7V48.707H32.325V80.465H21.279v2.762H35.087V43.183h2.762V74.307a8.242,8.242,0,0,0-.635,11.682Zm6.158,0A5.523,5.523,0,1,1,48.9,80.465a5.523,5.523,0,0,1-5.523,5.523Zm7.88-29.974L49.3,57.967l1.785,1.786-5.358,5.358,5.6-20.547H67.254l5.109,14.309L55.5,66.657h-7.41l4.952-4.952,1.785,1.785,1.952-1.952ZM40.825,72.584c-.073.023-.144.052-.215.079V48.707h6.729Zm8.7,13.4a8.3,8.3,0,0,0,1.643-2.762H64.567a8.3,8.3,0,0,0,1.643,2.762Zm22.839,0a5.523,5.523,0,1,1,5.523-5.523A5.523,5.523,0,0,1,72.369,85.989Zm5.523-11.682a8.271,8.271,0,0,0-13.808,6.158H51.657A8.289,8.289,0,0,0,43.793,72.2l.759-2.782H56.1L73.3,61.483l.862,2.412h3.735V74.307Zm0-13.173H76.1l-5.918-16.57h2.183V41.8H46.133v2.762h2.335l-.377,1.381H40.61V43.183h2.762V40.422H29.563v2.762h2.762v2.762H15.755V85.989h-6.9V36.279H77.892Zm0-27.617H8.851V23.97L43.372,12.875l34.521,11.1ZM43.372,9.973,5.414,22.173l-1.52-3.039L43.372,5.975,82.85,19.134l-1.52,3.039Z" transform="translate(0 -3.064)"/>
          <rect id="Rectangle_3019" data-name="Rectangle 3019" class="cls-9" width="2.762" height="2.762" transform="translate(41.991 15.264)"/>
          <rect id="Rectangle_3020" data-name="Rectangle 3020" class="cls-9" width="2.762" height="2.762" transform="translate(47.514 15.264)"/>
          <rect id="Rectangle_3021" data-name="Rectangle 3021" class="cls-9" width="2.762" height="2.762" transform="translate(36.468 15.264)"/>
        </g>
      </g>
    </g>
    <g id="route" transform="translate(-11631.742 2213.773)">
      <g id="Group_1337-2" data-name="Group 1337" transform="translate(0 0)">
        <g id="Group_1336-2" data-name="Group 1336">
          <path id="Path_8110-2" data-name="Path 8110" class="cls-9" d="M70.849,84.848A8.317,8.317,0,0,0,62.981,90.5H13.956a8.658,8.658,0,0,1,0-17.315H30.918a13.958,13.958,0,1,0,0-27.917H16.17a8.34,8.34,0,0,0-5.218-5.218V33.609H25.264a2.65,2.65,0,0,0,2.65-2.65V19.65A2.65,2.65,0,0,0,25.264,17H8.3a2.65,2.65,0,0,0-2.65,2.65v20.4A8.3,8.3,0,1,0,16.17,50.571H30.918a8.658,8.658,0,0,1,0,17.315H13.956a13.958,13.958,0,0,0,0,27.917H62.981a8.3,8.3,0,1,0,7.868-10.955ZM10.952,22.3H22.613v6.007H10.952ZM8.3,50.924a3,3,0,1,1,3-3,3,3,0,0,1-3,3ZM70.849,96.156a3,3,0,1,1,3-3,3,3,0,0,1-3,3Z" transform="translate(0.003 -17)"/>
        </g>
      </g>
      <g id="Group_1339-2" data-name="Group 1339" transform="translate(62.548 16.962)">
        <g id="Group_1338-2" data-name="Group 1338">
          <path id="Path_8111-2" data-name="Path 8111" class="cls-9" d="M362.3,113a8.3,8.3,0,1,0,8.3,8.3A8.3,8.3,0,0,0,362.3,113Zm0,11.308a3,3,0,1,1,3-3A3,3,0,0,1,362.3,124.308Z" transform="translate(-354 -113)"/>
        </g>
      </g>
      <g id="Group_1341-2" data-name="Group 1341" transform="translate(51.238 5.654)">
        <g id="Group_1340-2" data-name="Group 1340">
          <path id="Path_8112-2" data-name="Path 8112" class="cls-9" d="M309.6,49a19.612,19.612,0,0,0-12.611,34.634l10.25,20.107a2.65,2.65,0,0,0,4.723,0l10.25-20.107A19.612,19.612,0,0,0,309.6,49Zm8.861,30.852a2.65,2.65,0,0,0-.719.876L309.6,96.7,301.46,80.728a2.651,2.651,0,0,0-.719-.876,14.312,14.312,0,1,1,17.722,0Z" transform="translate(-289.988 -49)"/>
        </g>
      </g>
    </g>
    <g id="ship" transform="translate(-11353.411 2537.994)">
      <g id="Group_1343-2" data-name="Group 1343" transform="translate(59.639 53.82)">
        <g id="Group_1342-2" data-name="Group 1342">
          <path id="Path_8113-2" data-name="Path 8113" class="cls-9" d="M307.145,297.07a4.651,4.651,0,1,0,4.651,4.651A4.651,4.651,0,0,0,307.145,297.07Zm0,6.212a1.561,1.561,0,1,1,1.56-1.561,1.561,1.561,0,0,1-1.56,1.561Z" transform="translate(-302.493 -297.07)"/>
        </g>
      </g>
      <g id="Group_1345-2" data-name="Group 1345" transform="translate(70.104 53.82)">
        <g id="Group_1344-2" data-name="Group 1344">
          <path id="Path_8114-2" data-name="Path 8114" class="cls-9" d="M360.231,297.07a4.651,4.651,0,1,0,4.65,4.651A4.651,4.651,0,0,0,360.231,297.07Zm0,6.212a1.561,1.561,0,1,1,1.56-1.561,1.561,1.561,0,0,1-1.56,1.561Z" transform="translate(-355.579 -297.07)"/>
        </g>
      </g>
      <g id="Group_1347-2" data-name="Group 1347" transform="translate(80.57 53.82)">
        <g id="Group_1346-2" data-name="Group 1346">
          <path id="Path_8115-2" data-name="Path 8115" class="cls-9" d="M413.317,297.07a4.651,4.651,0,1,0,4.651,4.651A4.651,4.651,0,0,0,413.317,297.07Zm0,6.212a1.561,1.561,0,1,1,1.561-1.561A1.561,1.561,0,0,1,413.317,303.282Z" transform="translate(-408.665 -297.07)"/>
        </g>
      </g>
      <g id="Group_1349-2" data-name="Group 1349" transform="translate(11.855 66.223)">
        <g id="Group_1348-2" data-name="Group 1348">
          <path id="Path_8116-2" data-name="Path 8116" class="cls-9" d="M62.747,360.434a1.542,1.542,0,1,0,.453,1.092A1.542,1.542,0,0,0,62.747,360.434Z" transform="translate(-60.117 -359.984)"/>
        </g>
      </g>
      <g id="Group_1351-2" data-name="Group 1351" transform="translate(21.742 66.223)">
        <g id="Group_1350-2" data-name="Group 1350">
          <path id="Path_8117-2" data-name="Path 8117" class="cls-9" d="M112.9,360.434a1.542,1.542,0,1,0,.453,1.092A1.542,1.542,0,0,0,112.9,360.434Z" transform="translate(-110.271 -359.984)"/>
        </g>
      </g>
      <g id="Group_1353-2" data-name="Group 1353" transform="translate(31.63 66.223)">
        <g id="Group_1352-2" data-name="Group 1352">
          <path id="Path_8118-2" data-name="Path 8118" class="cls-9" d="M163.055,360.434a1.542,1.542,0,1,0,.453,1.092A1.542,1.542,0,0,0,163.055,360.434Z" transform="translate(-160.425 -359.984)"/>
        </g>
      </g>
      <g id="Group_1355-2" data-name="Group 1355" transform="translate(41.518 66.223)">
        <g id="Group_1354-2" data-name="Group 1354">
          <path id="Path_8119-2" data-name="Path 8119" class="cls-9" d="M213.209,360.434a1.542,1.542,0,1,0,.453,1.092A1.542,1.542,0,0,0,213.209,360.434Z" transform="translate(-210.579 -359.984)"/>
        </g>
      </g>
      <g id="Group_1357-2" data-name="Group 1357" transform="translate(51.406 66.223)">
        <g id="Group_1356-2" data-name="Group 1356">
          <path id="Path_8120-2" data-name="Path 8120" class="cls-9" d="M263.363,360.434a1.542,1.542,0,1,0,.453,1.092A1.542,1.542,0,0,0,263.363,360.434Z" transform="translate(-260.733 -359.984)"/>
        </g>
      </g>
      <g id="Group_1359-2" data-name="Group 1359" transform="translate(61.294 66.223)">
        <g id="Group_1358-2" data-name="Group 1358">
          <path id="Path_8121-2" data-name="Path 8121" class="cls-9" d="M313.517,360.434a1.542,1.542,0,1,0,.453,1.092A1.542,1.542,0,0,0,313.517,360.434Z" transform="translate(-310.887 -359.984)"/>
        </g>
      </g>
      <g id="Group_1361-2" data-name="Group 1361" transform="translate(71.181 66.223)">
        <g id="Group_1360-2" data-name="Group 1360">
          <path id="Path_8122-2" data-name="Path 8122" class="cls-9" d="M363.671,360.434a1.542,1.542,0,1,0,.453,1.092,1.542,1.542,0,0,0-.453-1.092Z" transform="translate(-361.041 -359.984)"/>
        </g>
      </g>
      <g id="Group_1363-2" data-name="Group 1363" transform="translate(81.069 66.223)">
        <g id="Group_1362-2" data-name="Group 1362">
          <path id="Path_8123-2" data-name="Path 8123" class="cls-9" d="M413.825,360.434a1.542,1.542,0,1,0,.453,1.092A1.542,1.542,0,0,0,413.825,360.434Z" transform="translate(-411.195 -359.984)"/>
        </g>
      </g>
      <g id="Group_1365" data-name="Group 1365" transform="translate(47.897 84.311)">
        <g id="Group_1364" data-name="Group 1364">
          <path id="Path_8124-2" data-name="Path 8124" class="cls-9" d="M278.194,453.52a1.545,1.545,0,0,0-2.179-.154,9.85,9.85,0,0,1-13.983-1.088,1.545,1.545,0,0,0-2.359,0,9.849,9.849,0,0,1-14.154.936,1.545,1.545,0,1,0-2.079,2.287,12.939,12.939,0,0,0,17.412,0,12.938,12.938,0,0,0,17.187.2A1.545,1.545,0,0,0,278.194,453.52Z" transform="translate(-242.935 -451.73)"/>
        </g>
      </g>
      <g id="Group_1367" data-name="Group 1367" transform="translate(12.022 84.311)">
        <g id="Group_1366" data-name="Group 1366">
          <path id="Path_8125-2" data-name="Path 8125" class="cls-9" d="M80.923,452.1a1.545,1.545,0,0,0-2.177.182,9.851,9.851,0,0,1-15.057,0,1.545,1.545,0,1,0-2.359,2,12.941,12.941,0,0,0,19.775,0,1.545,1.545,0,0,0-.182-2.177Z" transform="translate(-60.965 -451.73)"/>
        </g>
      </g>
      <g id="Group_1369" data-name="Group 1369" transform="translate(0 0)">
        <g id="Group_1368" data-name="Group 1368">
          <path id="Path_8126-2" data-name="Path 8126" class="cls-9" d="M100.6,73.864a2.2,2.2,0,0,0-1.906-.989H97.233V66.461a2.578,2.578,0,0,0-2.575-2.575H90.806V56.507a2.578,2.578,0,0,0-2.575-2.575H54.8V47.943a2.7,2.7,0,0,0-2.7-2.7h-.394l-1.918-3.323a4.232,4.232,0,0,0-.913-7.394V30.474l1.018-.151a2.034,2.034,0,0,0,1.726-2V27.281a1.959,1.959,0,0,0-1.957-1.957H27.61a2.573,2.573,0,0,0-2.2-1.244H14.823a2.578,2.578,0,0,0-2.576,2.575v6.87A2.578,2.578,0,0,0,14.822,36.1h1.252V70.076H14.2a2.578,2.578,0,0,0-2.575,2.575v.983H8.109a2.578,2.578,0,0,0-2.575,2.575v5.884H2.285a2.277,2.277,0,0,0-1.891.937A2.277,2.277,0,0,0,.13,85.124l6.188,17.763A9.874,9.874,0,0,1,4.846,103a1.545,1.545,0,1,0,0,3.09,12.918,12.918,0,0,0,8.707-3.368,12.938,12.938,0,0,0,17.416,0,12.939,12.939,0,0,0,17.416,0,12.939,12.939,0,0,0,17.416,0,12.938,12.938,0,0,0,17.416,0,12.919,12.919,0,0,0,8.708,3.369,1.545,1.545,0,1,0,0-3.09,9.838,9.838,0,0,1-3.427-.618l5.337-11.538a1.545,1.545,0,1,0-2.8-1.3L88.7,94.589H27.388a1.545,1.545,0,0,0,0,3.09H87.27L85.8,100.86A9.936,9.936,0,0,1,84.4,99.5a1.545,1.545,0,0,0-2.359,0,9.85,9.85,0,0,1-15.057,0,1.545,1.545,0,0,0-2.359,0,9.85,9.85,0,0,1-15.057,0,1.545,1.545,0,0,0-2.359,0,9.85,9.85,0,0,1-15.057,0,1.545,1.545,0,0,0-2.359,0,9.85,9.85,0,0,1-15.057,0,1.545,1.545,0,0,0-2.359,0,9.871,9.871,0,0,1-3.11,2.448L7.775,97.68h12.2a1.545,1.545,0,0,0,0-3.09H6.7L3.421,85.182h49.6a3.306,3.306,0,0,0,2.874-1.837l3.378-7.3a.4.4,0,0,1,.121-.077H97.314l-3.52,7.61a1.545,1.545,0,1,0,2.8,1.3l4.1-8.862a2.2,2.2,0,0,0-.1-2.146ZM11.627,82.092h-3v-5.37h3Zm60.519-25.07h15.57v6.864H72.146ZM51.71,48.333V56.4H42.951V48.333Zm-5.188-3.089.808-1.4.808,1.4Zm.808-7.923a1.151,1.151,0,1,1-1.151,1.151,1.151,1.151,0,0,1,1.151-1.151ZM27.985,28.414H41.7L27.985,30.447Zm-12.647,4.6V27.17h9.557v5.84Zm3.827,18.563V49.924h1.9v1.648Zm1.9,3.09V56.1h-1.9V54.662Zm-1.9-7.827V45.187h1.9v1.648Zm0-4.738V40.449h1.9V42.1Zm0-4.738V36.1h1.9v1.259Zm6.351,44.733h-10.8V73.165h10.8Zm6.3,0H28.6v-5.37h3.21Zm.13-15.631v7.172H28.6v-.983a2.578,2.578,0,0,0-2.575-2.575H24.157v-1.92a1.545,1.545,0,0,0-3.09,0v1.92h-1.9V59.195h1.9v2.781a1.545,1.545,0,0,0,3.09,0V36.1h1.252a2.577,2.577,0,0,0,2.573-2.529l17.8-2.639v3.595a4.232,4.232,0,0,0-.913,7.394l-1.918,3.323h-.394a2.7,2.7,0,0,0-2.7,2.7v8.846a2.7,2.7,0,0,0,2.7,2.7H44.8v4.4H34.519a2.578,2.578,0,0,0-2.575,2.575ZM56.2,73.841H51.7a1.545,1.545,0,1,0,0,3.09h3.76L53.1,82.015a.4.4,0,0,1-.121.077H34.9V76.931H45.31a1.545,1.545,0,1,0,0-3.09H35.034V66.977H56.2v6.864Zm-8.313-9.955v-4.4H52.1a2.7,2.7,0,0,0,2.687-2.467H69.056v6.864Zm32.571,8.989h-21.1l-.064,0v-5.9H80.459v5.9Zm13.684,0H83.549v-5.9H94.143Z" transform="translate(0.013 -24.08)"/>
        </g>
      </g>
    </g>
    <g id="truck" transform="translate(-11479.168 2136.342)">
      <g id="Group_14135" data-name="Group 14135" transform="translate(0 0)">
        <g id="Group_14134" data-name="Group 14134">
          <path id="Path_7714" data-name="Path 7714" class="cls-9" d="M111.708,126.273l-3.11-12.442a1.881,1.881,0,0,0,1.489-1.839v-2.006a7.908,7.908,0,0,0-7.9-7.9H88.019V97.949a3.891,3.891,0,0,0-3.887-3.887H11.911a3.891,3.891,0,0,0-3.888,3.887v34.1a1.881,1.881,0,1,0,3.762,0v-34.1a.125.125,0,0,1,.125-.125H84.132a.125.125,0,0,1,.125.125v34.1a1.881,1.881,0,1,0,3.762,0v-2.132h22.2a6.155,6.155,0,0,1,5.843,4.264h-5.847a1.881,1.881,0,0,0-1.881,1.881v4.012a5.9,5.9,0,0,0,5.893,5.893h2.132v8.276h-4.918a11.908,11.908,0,0,0-22.513,0h-.906v-14.17a1.881,1.881,0,0,0-3.762,0v14.168H45.236a11.908,11.908,0,0,0-22.513,0H11.911a.125.125,0,0,1-.125-.125v-4.137h8.15a1.881,1.881,0,1,0,0-3.762H1.881a1.881,1.881,0,1,0,0,3.762H8.025v4.138a3.891,3.891,0,0,0,3.887,3.887H22.07c0,.042,0,.083,0,.125a11.911,11.911,0,1,0,23.823,0c0-.042,0-.083,0-.125H88.272c0,.042,0,.083,0,.125a11.911,11.911,0,1,0,23.823,0c0-.042,0-.084,0-.125h6.147a1.881,1.881,0,0,0,1.883-1.881V136.065a9.92,9.92,0,0,0-8.409-9.792ZM88.019,105.848h14.168a4.142,4.142,0,0,1,4.138,4.138v.125H88.019Zm0,20.312V113.873h16.712L107.8,126.16H88.019Zm-54.04,40.122a8.15,8.15,0,1,1,8.15-8.15,8.15,8.15,0,0,1-8.15,8.15Zm66.2,0a8.15,8.15,0,1,1,8.15-8.15,8.15,8.15,0,0,1-8.15,8.15Zm16.174-24.073h-2.132a2.135,2.135,0,0,1-2.13-2.133v-2.132h4.263v4.264Z" transform="translate(0 -94.062)"/>
        </g>
      </g>
      <g id="Group_14137" data-name="Group 14137" transform="translate(30.091 60.185)">
        <g id="Group_14136" data-name="Group 14136">
          <path id="Path_7715" data-name="Path 7715" class="cls-9" d="M132.152,350.6a3.887,3.887,0,1,0,3.886,3.887,3.887,3.887,0,0,0-3.886-3.887Z" transform="translate(-128.264 -350.6)"/>
        </g>
      </g>
      <g id="Group_14139" data-name="Group 14139" transform="translate(96.294 60.185)">
        <g id="Group_14138" data-name="Group 14138">
          <path id="Path_7716" data-name="Path 7716" class="cls-9" d="M414.342,350.6a3.887,3.887,0,1,0,3.887,3.887A3.887,3.887,0,0,0,414.342,350.6Z" transform="translate(-410.455 -350.6)"/>
        </g>
      </g>
      <g id="Group_14141" data-name="Group 14141" transform="translate(48.147 52.16)">
        <g id="Group_14140" data-name="Group 14140">
          <path id="Path_7717" data-name="Path 7717" class="cls-9" d="M235.194,316.393H207.108a1.881,1.881,0,1,0,0,3.762h28.086a1.881,1.881,0,1,0,0-3.762Z" transform="translate(-205.227 -316.393)"/>
        </g>
      </g>
      <g id="Group_14143" data-name="Group 14143" transform="translate(4.012 44.135)">
        <g id="Group_14142" data-name="Group 14142">
          <path id="Path_7718" data-name="Path 7718" class="cls-9" d="M43.056,282.188H18.983a1.881,1.881,0,1,0,0,3.762H43.056a1.881,1.881,0,1,0,0-3.762Z" transform="translate(-17.102 -282.188)"/>
        </g>
      </g>
      <g id="Group_14145" data-name="Group 14145" transform="translate(34.104 18.055)">
        <g id="Group_14144" data-name="Group 14144">
          <path id="Path_7719" data-name="Path 7719" class="cls-9" d="M176.666,171.573a1.881,1.881,0,0,0-2.66,0L157.281,188.3l-8.7-8.7a1.881,1.881,0,0,0-2.66,2.66l10.031,10.031a1.88,1.88,0,0,0,2.659,0l18.055-18.055A1.881,1.881,0,0,0,176.666,171.573Z" transform="translate(-145.37 -171.022)"/>
        </g>
      </g>
    </g>
    <g id="logo" transform="translate(-11448.415 2239.388)">
      <g id="Group_1364-2" data-name="Group 1364" transform="translate(-67.718 195.017)">
        <path id="Path_8165" data-name="Path 8165" class="cls-10" d="M203.4,98.746V77.4h3l6.863,10.8a59.86,59.86,0,0,1,3.829,6.935l.072-.036c-.253-2.853-.325-5.454-.325-8.777V77.4h2.6V98.746h-2.781l-6.79-10.836a71.587,71.587,0,0,1-4.009-7.115l-.108.036c.144,2.709.217,5.273.217,8.813v9.138H203.4Z" transform="translate(-203.4 -77.003)"/>
        <path id="Path_8166" data-name="Path 8166" class="cls-10" d="M261.757,92.028l-2.2,6.718H256.7L263.96,77.4h3.323l7.3,21.346h-2.962l-2.275-6.718Zm7.007-2.167-2.095-6.14c-.47-1.409-.795-2.673-1.12-3.9h-.072c-.325,1.264-.65,2.564-1.084,3.865L262.3,89.861Z" transform="translate(-237.449 -77.003)"/>
        <path id="Path_8167" data-name="Path 8167" class="cls-10" d="M310.8,97.057,322.647,79.72v-.108H311.811V77.3h14.411V79L314.448,96.262v.108H326.4v2.312H310.8Z" transform="translate(-272.008 -76.939)"/>
        <path id="Path_8168" data-name="Path 8168" class="cls-10" d="M359.3,97.057,371.147,79.72v-.108H360.311V77.3h14.411V79L362.948,96.262v.108H374.9v2.312H359.3Z" transform="translate(-302.99 -76.939)"/>
        <path id="Path_8169" data-name="Path 8169" class="cls-10" d="M441.489,88.741h-8.307v7.693h9.246v2.312H430.4V77.4h11.522v2.312h-8.777v6.754h8.307v2.276Z" transform="translate(-348.41 -77.003)"/>
        <path id="Path_8170" data-name="Path 8170" class="cls-10" d="M482.492,98.746l-2.709-4.732c-1.12-1.806-1.806-2.962-2.456-4.226h-.072c-.614,1.228-1.192,2.384-2.312,4.262l-2.564,4.7H469.2l6.538-10.8L469.453,77.4h3.215l2.817,5.021c.795,1.409,1.409,2.456,1.95,3.612h.108c.614-1.264,1.156-2.239,1.95-3.612L482.42,77.4H485.6l-6.5,10.4,6.646,10.98h-3.251Z" transform="translate(-373.196 -77.003)"/>
        <path id="Path_8171" data-name="Path 8171" class="cls-10" d="M523.8,77.4a32.872,32.872,0,0,1,5.31-.4c2.709,0,4.732.65,6,1.77a5.8,5.8,0,0,1,1.878,4.479,6.17,6.17,0,0,1-1.661,4.551,8.829,8.829,0,0,1-6.538,2.348,10.057,10.057,0,0,1-2.2-.181v8.56h-2.745V77.4Zm2.745,10.294a10.122,10.122,0,0,0,2.276.217c3.323,0,5.346-1.625,5.346-4.551,0-2.817-1.987-4.19-5.057-4.19a12.985,12.985,0,0,0-2.6.217v8.307Z" transform="translate(-408.075 -76.747)"/>
        <path id="Path_8172" data-name="Path 8172" class="cls-10" d="M570.4,77.433A28.673,28.673,0,0,1,575.71,77c2.962,0,4.84.542,6.176,1.734a5.277,5.277,0,0,1,1.661,4.045,5.613,5.613,0,0,1-4.009,5.454v.108c1.661.578,2.637,2.095,3.142,4.3a29.991,29.991,0,0,0,1.661,5.851h-2.854A25.963,25.963,0,0,1,580.08,93.4c-.65-2.962-1.77-4.045-4.262-4.154h-2.6v9.246h-2.745V77.433Zm2.781,9.716H576c2.962,0,4.8-1.625,4.8-4.045,0-2.745-1.987-3.973-4.912-4.009a12.133,12.133,0,0,0-2.709.253Z" transform="translate(-437.843 -76.747)"/>
        <path id="Path_8173" data-name="Path 8173" class="cls-10" d="M628.688,88.741h-8.307v7.693h9.247v2.312H617.6V77.4h11.522v2.312h-8.777v6.754h8.307v2.276Z" transform="translate(-467.995 -77.003)"/>
        <path id="Path_8174" data-name="Path 8174" class="cls-10" d="M658.714,94.685a9.749,9.749,0,0,0,4.948,1.409c2.817,0,4.479-1.481,4.479-3.648,0-1.987-1.156-3.142-4.009-4.262-3.5-1.228-5.635-3.034-5.635-6.068,0-3.323,2.745-5.815,6.9-5.815a9.735,9.735,0,0,1,4.732,1.047l-.759,2.239a8.291,8.291,0,0,0-4.045-1.011c-2.926,0-4.009,1.734-4.009,3.215,0,1.987,1.3,2.962,4.262,4.118,3.612,1.409,5.454,3.142,5.454,6.285,0,3.287-2.456,6.14-7.477,6.14A11.118,11.118,0,0,1,658.1,96.96Z" transform="translate(-493.867 -76.3)"/>
        <path id="Path_8175" data-name="Path 8175" class="cls-10" d="M701.914,94.685a9.749,9.749,0,0,0,4.948,1.409c2.817,0,4.479-1.481,4.479-3.648,0-1.987-1.156-3.142-4.009-4.262-3.5-1.228-5.635-3.034-5.635-6.068,0-3.323,2.745-5.815,6.9-5.815a9.735,9.735,0,0,1,4.732,1.047l-.758,2.239a8.292,8.292,0,0,0-4.045-1.011c-2.926,0-4.009,1.734-4.009,3.215,0,1.987,1.3,2.962,4.262,4.118,3.612,1.409,5.454,3.142,5.454,6.285,0,3.287-2.456,6.14-7.477,6.14A11.118,11.118,0,0,1,701.3,96.96Z" transform="translate(-521.463 -76.3)"/>
      </g>
      <g id="Group_14162" transform="translate(-23.904 36)">
        <path id="Path_8496" class="cls-11" d="M98.28,56.354a14.294,14.294,0,0,1-4.206,10.158L92.587,68l-.065-.065L67.03,93.428,55.449,81.846,72.4,64.895l8.54-8.54L47.879,23.228,11.646,59.46,0,47.879,36.232,11.646h0L47.814,0h0L59.46,11.646h0L92.587,44.773h0L94.01,46.2l.129.129A14.2,14.2,0,0,1,98.28,56.354Z"/>
        <path id="Path_8497" class="cls-12" d="M10.3,106.674a14.294,14.294,0,0,1,4.206-10.158l1.488-1.488.065.065L41.55,69.6,53.132,81.181,36.18,98.133l-8.605,8.541L60.7,139.8l36.232-36.232,11.581,11.581L72.283,151.382h0L60.7,163.028h0L49.12,151.382h0L15.994,118.255h0l-1.423-1.423-.129-.129A14.2,14.2,0,0,1,10.3,106.674Z" transform="translate(-3.636 -24.568)"/>
      </g>
    </g>
  </g>
</svg>
