<?xml version="1.0" encoding="utf-8"?>
<!-- Generator: Adobe Illustrator 22.0.1, SVG Export Plug-In . SVG Version: 6.00 Build 0)  -->
<svg version="1.1" id="Layer_1" xmlns="http://www.w3.org/2000/svg" xmlns:xlink="http://www.w3.org/1999/xlink" x="0px" y="0px"
	 viewBox="0 0 736.9 214" style="enable-background:new 0 0 736.9 214;" xml:space="preserve">
<style type="text/css">
	.st0{fill:#FFFFFF;}
	.st1{fill:#878B57;}
	.st2{fill:#B4D36A;}
</style>
<g>
	<g>
		<path class="st0" d="M203.4,136.5V77.4h8.3l19,29.9c4.4,6.9,7.8,13.2,10.6,19.2l0.2-0.1c-0.7-7.9-0.9-15.1-0.9-24.3V77.4h7.2v59.1
			h-7.7l-18.8-30c-4.1-6.6-8.1-13.3-11.1-19.7l-0.3,0.1c0.4,7.5,0.6,14.6,0.6,24.4v25.3H203.4z"/>
		<path class="st0" d="M270.7,117.9l-6.1,18.6h-7.9l20.1-59.1h9.2l20.2,59.1H298l-6.3-18.6H270.7z M290.1,111.9l-5.8-17
			c-1.3-3.9-2.2-7.4-3.1-10.8h-0.2c-0.9,3.5-1.8,7.1-3,10.7l-5.8,17.1H290.1z"/>
		<path class="st0" d="M310.8,132l32.8-48v-0.3h-30v-6.4h39.9V82l-32.6,47.8v0.3H354v6.4h-43.2V132z"/>
		<path class="st0" d="M359.3,132l32.8-48v-0.3h-30v-6.4H402V82l-32.6,47.8v0.3h33.1v6.4h-43.2V132z"/>
		<path class="st0" d="M461.1,108.8h-23v21.3h25.6v6.4h-33.3V77.4h31.9v6.4h-24.3v18.7h23V108.8z"/>
		<path class="st0" d="M506,136.5l-7.5-13.1c-3.1-5-5-8.2-6.8-11.7h-0.2c-1.7,3.4-3.3,6.6-6.4,11.8l-7.1,13h-8.8l18.1-29.9
			l-17.4-29.2h8.9l7.8,13.9c2.2,3.9,3.9,6.8,5.4,10h0.3c1.7-3.5,3.2-6.2,5.4-10l8.1-13.9h8.8l-18,28.8l18.4,30.4H506z"/>
		<path class="st0" d="M523.8,78.1c3.7-0.6,8.5-1.1,14.7-1.1c7.5,0,13.1,1.8,16.6,4.9c3.2,2.8,5.2,7.1,5.2,12.4
			c0,5.4-1.6,9.6-4.6,12.6c-4,4.3-10.6,6.5-18.1,6.5c-2.3,0-4.4-0.1-6.1-0.5v23.7h-7.6V78.1z M531.4,106.6c1.7,0.4,3.8,0.6,6.3,0.6
			c9.2,0,14.8-4.5,14.8-12.6c0-7.8-5.5-11.6-14-11.6c-3.3,0-5.9,0.3-7.2,0.6V106.6z"/>
		<path class="st0" d="M570.4,78.2c3.9-0.8,9.4-1.2,14.7-1.2c8.2,0,13.4,1.5,17.1,4.8c3,2.6,4.6,6.7,4.6,11.2
			c0,7.8-4.9,13-11.1,15.1v0.3c4.6,1.6,7.3,5.8,8.7,11.9c1.9,8.2,3.3,14,4.6,16.2h-7.9c-1-1.7-2.3-6.8-3.9-14.1
			c-1.8-8.2-4.9-11.2-11.8-11.5h-7.2v25.6h-7.6V78.2z M578.1,105.1h7.8c8.2,0,13.3-4.5,13.3-11.2c0-7.6-5.5-11-13.6-11.1
			c-3.7,0-6.3,0.4-7.5,0.7V105.1z"/>
		<path class="st0" d="M648.3,108.8h-23v21.3h25.6v6.4h-33.3V77.4h31.9v6.4h-24.3v18.7h23V108.8z"/>
		<path class="st0" d="M659.8,127.2c3.4,2.1,8.4,3.9,13.7,3.9c7.8,0,12.4-4.1,12.4-10.1c0-5.5-3.2-8.7-11.1-11.8
			c-9.7-3.4-15.6-8.4-15.6-16.8c0-9.2,7.6-16.1,19.1-16.1c6.1,0,10.4,1.4,13.1,2.9l-2.1,6.2c-1.9-1.1-5.9-2.8-11.2-2.8
			c-8.1,0-11.1,4.8-11.1,8.9c0,5.5,3.6,8.2,11.8,11.4c10,3.9,15.1,8.7,15.1,17.4c0,9.1-6.8,17-20.7,17c-5.7,0-11.9-1.7-15.1-3.8
			L659.8,127.2z"/>
		<path class="st0" d="M703,127.2c3.4,2.1,8.4,3.9,13.7,3.9c7.8,0,12.4-4.1,12.4-10.1c0-5.5-3.2-8.7-11.1-11.8
			c-9.7-3.4-15.6-8.4-15.6-16.8c0-9.2,7.6-16.1,19.1-16.1c6.1,0,10.4,1.4,13.1,2.9l-2.1,6.2c-1.9-1.1-5.9-2.8-11.2-2.8
			c-8.1,0-11.1,4.8-11.1,8.9c0,5.5,3.6,8.2,11.8,11.4c10,3.9,15.1,8.7,15.1,17.4c0,9.1-6.8,17-20.7,17c-5.7,0-11.9-1.7-15.1-3.8
			L703,127.2z"/>
	</g>
	<g id="Group_14162">
		<path id="Path_8496" class="st1" d="M151.9,87.1c0,5.9-2.3,11.5-6.5,15.7l-2.3,2.3L143,105l-39.4,39.4l-17.9-17.9l26.2-26.2
			l13.2-13.2L74,35.9l-56,56L0,74l56-56l0,0L73.9,0l0,0l18,18l0,0l51.2,51.2l0,0l2.2,2.2l0.2,0.2C149.6,75.7,151.9,81.3,151.9,87.1z
			"/>
		<path id="Path_8497" class="st2" d="M10.3,126.9c0-5.9,2.3-11.5,6.5-15.7l2.3-2.3l0.1,0.1l39.4-39.4l17.9,17.9l-26.2,26.2
			L37,126.9l51.2,51.2l56-56l17.9,17.9l-56,56l0,0l-17.9,18l0,0l-17.9-18l0,0l-51.2-51.2l0,0l-2.2-2.2l-0.2-0.2
			C12.6,138.3,10.3,132.7,10.3,126.9z"/>
	</g>
</g>
</svg>
