<svg xmlns="http://www.w3.org/2000/svg" xmlns:xlink="http://www.w3.org/1999/xlink" viewBox="-11847 8510 511.996 511.9">
  <defs>
    <style>
      .cls-1 {
        fill: url(#linear-gradient);
      }
    </style>
    <linearGradient id="linear-gradient" x1="0.5" x2="0.5" y2="1" gradientUnits="objectBoundingBox">
      <stop offset="0" stop-color="#97cc53"/>
      <stop offset="1" stop-color="#4c662a"/>
    </linearGradient>
  </defs>
  <g id="fright" transform="translate(-11847 8509.952)">
    <g id="Group_14059" data-name="Group 14059">
      <g id="Group_14058" data-name="Group 14058">
        <path id="Path_7682" data-name="Path 7682" class="cls-1" d="M256,68.316c-108.22,0-196.267,88.047-196.267,196.267S147.78,460.849,256,460.849,452.267,372.8,452.267,264.582,364.22,68.316,256,68.316Zm0,375.466c-98.807,0-179.2-80.384-179.2-179.2s80.393-179.2,179.2-179.2,179.2,80.384,179.2,179.2S354.816,443.782,256,443.782Z"/>
      </g>
    </g>
    <g id="Group_14061" data-name="Group 14061">
      <g id="Group_14060" data-name="Group 14060">
        <path id="Path_7683" data-name="Path 7683" class="cls-1" d="M338.364,86.449a8.63,8.63,0,0,0-2.466-.717l-1.971-.265a8.438,8.438,0,0,0-7.9,3.268,8.538,8.538,0,0,0-1.1,8.482c5.862,14.012,12.843,42.334,3.917,48.836l-19.78,7.91a44.187,44.187,0,0,0-27.392,35.951l-.128.981a5.3,5.3,0,0,1-4.412,4.557,6.05,6.05,0,0,1-6.562-2.8l-8.47-14.123a16.288,16.288,0,0,0-28.731,1.425c-7.62,16.273-17.186,39.757-19.507,59.2a31.14,31.14,0,0,0,3.106,17.63l9.839,19.678A42.989,42.989,0,0,0,242.3,293.529c6.127,3.866,17.485,11.665,24.721,20.4A51.337,51.337,0,0,0,298.25,332.25c-.478,15.983.572,42.257,11.452,53.862a19.617,19.617,0,0,0,13.858,6.46,36.8,36.8,0,0,0,4.813.3,41.587,41.587,0,0,0,26.573-9.421c13.466-11.127,20.369-30.7,20.523-58.189l12.22-55.006,4.642,7.731A25.987,25.987,0,0,0,430.2,285.4l18.654-14a8.529,8.529,0,0,0,3.413-6.827,196.965,196.965,0,0,0-113.9-178.129Zm81.6,185.3a8.921,8.921,0,0,1-13-2.551l-8.849-14.754a13.8,13.8,0,0,0-25.31,4.114l-14.2,63.906a8.409,8.409,0,0,0-.2,1.852c0,22.161-4.881,38-14.114,45.807a24.315,24.315,0,0,1-18.4,5.547c-1.1-.2-1.937.683-3.729-1.229-5.316-5.675-8-25.481-6.536-48.179a9.866,9.866,0,0,0-9.881-10.479c-9.566,0-18.893-4.634-25.591-12.715-8.3-10.044-20.224-18.577-28.757-23.962a25.828,25.828,0,0,1-9.327-10.266l-9.839-19.678a14.1,14.1,0,0,1-1.425-7.987c2.091-17.459,11.529-39.953,17.4-52.642l7.74,12.894a23.009,23.009,0,0,0,24.619,10.735,22.3,22.3,0,0,0,17.894-18.953l.179-1.348A27.078,27.078,0,0,1,315.4,169.8l20.574-8.226a9.03,9.03,0,0,0,1.254-.623c16.213-9.847,14.114-33.417,9.856-50.671a179.993,179.993,0,0,1,88.064,150.076Z"/>
      </g>
    </g>
    <g id="Group_14063" data-name="Group 14063">
      <g id="Group_14062" data-name="Group 14062">
        <path id="Path_7684" data-name="Path 7684" class="cls-1" d="M215.765,382.948l-5.171-5.163a69.079,69.079,0,0,0-21.751-14.729l-26.317-11.281a28.782,28.782,0,0,1-17.459-26.487V312.445a23.966,23.966,0,0,0-32.384-22.434l-40.977,15.36a8.535,8.535,0,0,0-5.248,10.206c19.208,71.535,78.524,127.078,151.117,141.491a8.663,8.663,0,0,0,1.673.162,8.543,8.543,0,0,0,8.209-6.187l3.123-10.94A58.242,58.242,0,0,0,215.765,382.948Zm-1.6,52.463-.922,3.209A180.377,180.377,0,0,1,85.12,318.573L118.673,306A6.9,6.9,0,0,1,128,312.446v12.843a45.827,45.827,0,0,0,27.8,42.172l26.317,11.281a52.269,52.269,0,0,1,16.41,11.11l5.171,5.163a41.168,41.168,0,0,1,10.472,40.4Z"/>
      </g>
    </g>
    <g id="Group_14065" data-name="Group 14065">
      <g id="Group_14064" data-name="Group 14064">
        <path id="Path_7685" data-name="Path 7685" class="cls-1" d="M166.545,97.918a8.529,8.529,0,0,0-11-1.946A195.981,195.981,0,0,0,60.023,254.061a8.531,8.531,0,0,0,8.517,8.985,8.714,8.714,0,0,0,3.089-.572l52.932-20.89a25.851,25.851,0,0,0,14.908-32.145,8.732,8.732,0,0,1,2.116-8.96l24.593-24.593A44.127,44.127,0,0,0,179.2,144.458v-11.1a56.455,56.455,0,0,0-12.655-35.44Zm-4.412,46.532a27.163,27.163,0,0,1-8.03,19.362L129.51,188.4a25.678,25.678,0,0,0-6.229,26.419,8.76,8.76,0,0,1-5.052,10.9l-39.953,15.84a178.889,178.889,0,0,1,79.172-126.643,38.964,38.964,0,0,1,4.685,18.432v11.1Z"/>
      </g>
    </g>
    <g id="Group_14067" data-name="Group 14067">
      <g id="Group_14066" data-name="Group 14066">
        <path id="Path_7686" data-name="Path 7686" class="cls-1" d="M256,.049A259.8,259.8,0,0,0,229.613,1.4a8.534,8.534,0,0,0,.8,17.03,7.607,7.607,0,0,0,.876-.051A245.425,245.425,0,0,1,256,17.116,8.534,8.534,0,1,0,256,.048Z"/>
      </g>
    </g>
    <g id="Group_14069" data-name="Group 14069">
      <g id="Group_14068" data-name="Group 14068">
        <path id="Path_7687" data-name="Path 7687" class="cls-1" d="M20.429,296.207a241.647,241.647,0,0,1-3.362-40.158q0-4.275.154-8.533a8.534,8.534,0,0,0-17.058-.588Q-.005,251.47,0,256.049a259.287,259.287,0,0,0,3.59,43,8.538,8.538,0,0,0,8.4,7.124,8.321,8.321,0,0,0,1.442-.119,8.536,8.536,0,0,0,6.994-9.839Z"/>
      </g>
    </g>
    <g id="Group_14071" data-name="Group 14071">
      <g id="Group_14070" data-name="Group 14070">
        <path id="Path_7688" data-name="Path 7688" class="cls-1" d="M55.826,386.558a238.675,238.675,0,0,1-22.367-43.35,8.533,8.533,0,0,0-15.889,6.229,256.062,256.062,0,0,0,23.962,46.447,8.534,8.534,0,1,0,14.294-9.326Z"/>
      </g>
    </g>
    <g id="Group_14073" data-name="Group 14073">
      <g id="Group_14072" data-name="Group 14072">
        <path id="Path_7689" data-name="Path 7689" class="cls-1" d="M36.215,141.89a8.543,8.543,0,0,0-11.375,4.028A254.492,254.492,0,0,0,7.287,195.164a8.53,8.53,0,0,0,6.264,10.316,8.8,8.8,0,0,0,2.031.239,8.553,8.553,0,0,0,8.286-6.511,237.587,237.587,0,0,1,16.375-45.943,8.526,8.526,0,0,0-4.028-11.375Z"/>
      </g>
    </g>
    <g id="Group_14075" data-name="Group 14075">
      <g id="Group_14074" data-name="Group 14074">
        <path id="Path_7690" data-name="Path 7690" class="cls-1" d="M99.772,63.937a8.528,8.528,0,0,0-12.041-.819,258.377,258.377,0,0,0-35.678,38.187A8.532,8.532,0,1,0,65.638,111.63,240.491,240.491,0,0,1,98.953,75.978a8.536,8.536,0,0,0,.819-12.041Z"/>
      </g>
    </g>
    <g id="Group_14077" data-name="Group 14077">
      <g id="Group_14076" data-name="Group 14076">
        <path id="Path_7691" data-name="Path 7691" class="cls-1" d="M214.366,491.381a238.236,238.236,0,0,1-46.908-13.329,8.532,8.532,0,1,0-6.331,15.847A254.649,254.649,0,0,0,211.4,508.184a8.762,8.762,0,0,0,1.485.128,8.529,8.529,0,0,0,1.476-16.931Z"/>
      </g>
    </g>
    <g id="Group_14079" data-name="Group 14079">
      <g id="Group_14078" data-name="Group 14078">
        <path id="Path_7692" data-name="Path 7692" class="cls-1" d="M321.681,494.863a8.552,8.552,0,0,0-10.274-6.332,239.467,239.467,0,0,1-48.375,6.357,8.53,8.53,0,0,0,.239,17.059c.077,0,.162,0,.256-.009a256.758,256.758,0,0,0,51.823-6.8A8.543,8.543,0,0,0,321.681,494.863Z"/>
      </g>
    </g>
    <g id="Group_14081" data-name="Group 14081">
      <g id="Group_14080" data-name="Group 14080">
        <path id="Path_7693" data-name="Path 7693" class="cls-1" d="M189.039,17.593a8.545,8.545,0,0,0-10.718-5.547,255.068,255.068,0,0,0-47.932,20.89A8.534,8.534,0,1,0,138.777,47.8a237.481,237.481,0,0,1,44.715-19.49A8.538,8.538,0,0,0,189.039,17.593Z"/>
      </g>
    </g>
    <g id="Group_14083" data-name="Group 14083">
      <g id="Group_14082" data-name="Group 14082">
        <path id="Path_7694" data-name="Path 7694" class="cls-1" d="M124.245,455.4a240.429,240.429,0,0,1-37.726-30.933,8.535,8.535,0,1,0-12.1,12.041,258.288,258.288,0,0,0,40.4,33.135A8.538,8.538,0,0,0,124.24,455.4Z"/>
      </g>
    </g>
    <g id="Group_14085" data-name="Group 14085">
      <g id="Group_14084" data-name="Group 14084">
        <path id="Path_7695" data-name="Path 7695" class="cls-1" d="M391.3,463.452a8.537,8.537,0,0,0-11.725-2.876,239.786,239.786,0,0,1-21.76,11.682A8.537,8.537,0,1,0,365.1,487.7a255.185,255.185,0,0,0,23.322-12.518,8.546,8.546,0,0,0,2.875-11.725Z"/>
      </g>
    </g>
    <g id="Group_14087" data-name="Group 14087">
      <g id="Group_14086" data-name="Group 14086">
        <path id="Path_7696" data-name="Path 7696" class="cls-1" d="M510.2,378.809a8.526,8.526,0,0,0-11.972-1.5l-76.8,59.733a8.559,8.559,0,0,0-3.294,6.741v25.6a8.533,8.533,0,1,0,17.066,0V447.954l73.5-57.173a8.532,8.532,0,0,0,1.5-11.972Z"/>
      </g>
    </g>
    <g id="Group_14089" data-name="Group 14089">
      <g id="Group_14088" data-name="Group 14088">
        <path id="Path_7697" data-name="Path 7697" class="cls-1" d="M429.372,435.684l-25.6-8.533a8.533,8.533,0,1,0-5.4,16.188l25.6,8.533a8.533,8.533,0,1,0,5.4-16.189Z"/>
      </g>
    </g>
    <g id="Group_14091" data-name="Group 14091">
      <g id="Group_14090" data-name="Group 14090">
        <path id="Path_7698" data-name="Path 7698" class="cls-1" d="M494.319,449.133l-17.067-42.667a8.522,8.522,0,0,0-3.533-4.147l-42.667-25.6a8.534,8.534,0,1,0-8.781,14.635l40.2,24.124,16,40a8.543,8.543,0,0,0,7.927,5.367,8.268,8.268,0,0,0,3.166-.623,8.532,8.532,0,0,0,4.755-11.089Z"/>
      </g>
    </g>
  </g>
</svg>
