<svg xmlns="http://www.w3.org/2000/svg" viewBox="-16110 -11664 512 478">
  <defs>
    <style>
      .cls-1 {
        fill: #b4d46a;
      }
    </style>
  </defs>
  <g id="route" transform="translate(-16110 -11681)">
    <g id="Group_1337" data-name="Group 1337">
      <g id="Group_1336" data-name="Group 1336">
        <path id="Path_8110" data-name="Path 8110" class="cls-1" d="M401,401a47.073,47.073,0,0,0-44.531,32H79a49,49,0,0,1,0-98h96a79,79,0,0,0,0-158H91.531A47.2,47.2,0,0,0,62,147.469V111h81a15,15,0,0,0,15-15V32a15,15,0,0,0-15-15H47A15,15,0,0,0,32,32V147.469A46.994,46.994,0,1,0,91.531,207H175a49,49,0,0,1,0,98H79a79,79,0,0,0,0,158H356.469A47,47,0,1,0,401,401ZM62,47h66V81H62ZM47,209a17,17,0,1,1,17-17A17.019,17.019,0,0,1,47,209ZM401,465a17,17,0,1,1,17-17A17.019,17.019,0,0,1,401,465Z"/>
      </g>
    </g>
    <g id="Group_1339" data-name="Group 1339">
      <g id="Group_1338" data-name="Group 1338">
        <path id="Path_8111" data-name="Path 8111" class="cls-1" d="M401,113a47,47,0,1,0,47,47A47.053,47.053,0,0,0,401,113Zm0,64a17,17,0,1,1,17-17A17.019,17.019,0,0,1,401,177Z"/>
      </g>
    </g>
    <g id="Group_1341" data-name="Group 1341">
      <g id="Group_1340" data-name="Group 1340">
        <path id="Path_8112" data-name="Path 8112" class="cls-1" d="M401,49a111,111,0,0,0-71.374,196.015l58.01,113.8a15,15,0,0,0,26.728,0l58.01-113.8A111,111,0,0,0,401,49Zm50.15,174.613a15,15,0,0,0-4.068,4.96L401,318.972l-46.082-90.4a15,15,0,0,0-4.068-4.96,81,81,0,1,1,100.3,0Z"/>
      </g>
    </g>
  </g>
</svg>
