<svg xmlns="http://www.w3.org/2000/svg" viewBox="-16527 -12483 512.002 463.841">
  <defs>
    <style>
      .cls-1 {
        fill: #b4d46a;
      }
    </style>
  </defs>
  <g id="ship" transform="translate(-16527 -12507.08)">
    <g id="Group_1343" data-name="Group 1343">
      <g id="Group_1342" data-name="Group 1342">
        <path id="Path_8113" data-name="Path 8113" class="cls-1" d="M326.088,297.07a23.592,23.592,0,1,0,23.589,23.592A23.618,23.618,0,0,0,326.088,297.07Zm0,31.511A7.919,7.919,0,1,1,334,320.662,7.927,7.927,0,0,1,326.089,328.581Z"/>
      </g>
    </g>
    <g id="Group_1345" data-name="Group 1345">
      <g id="Group_1344" data-name="Group 1344">
        <path id="Path_8114" data-name="Path 8114" class="cls-1" d="M379.175,297.07a23.592,23.592,0,1,0,23.588,23.592A23.618,23.618,0,0,0,379.175,297.07Zm0,31.511a7.919,7.919,0,1,1,7.915-7.919A7.927,7.927,0,0,1,379.175,328.581Z"/>
      </g>
    </g>
    <g id="Group_1347" data-name="Group 1347">
      <g id="Group_1346" data-name="Group 1346">
        <path id="Path_8115" data-name="Path 8115" class="cls-1" d="M432.26,297.07a23.592,23.592,0,1,0,23.589,23.592A23.618,23.618,0,0,0,432.26,297.07Zm0,31.511a7.919,7.919,0,1,1,7.916-7.919A7.927,7.927,0,0,1,432.26,328.581Z"/>
      </g>
    </g>
    <g id="Group_1349" data-name="Group 1349">
      <g id="Group_1348" data-name="Group 1348">
        <path id="Path_8116" data-name="Path 8116" class="cls-1" d="M73.458,362.265a7.82,7.82,0,1,0,2.3,5.538A7.864,7.864,0,0,0,73.458,362.265Z"/>
      </g>
    </g>
    <g id="Group_1351" data-name="Group 1351">
      <g id="Group_1350" data-name="Group 1350">
        <path id="Path_8117" data-name="Path 8117" class="cls-1" d="M123.612,362.265a7.82,7.82,0,1,0,2.3,5.538A7.864,7.864,0,0,0,123.612,362.265Z"/>
      </g>
    </g>
    <g id="Group_1353" data-name="Group 1353">
      <g id="Group_1352" data-name="Group 1352">
        <path id="Path_8118" data-name="Path 8118" class="cls-1" d="M173.766,362.265a7.82,7.82,0,1,0,2.3,5.538A7.864,7.864,0,0,0,173.766,362.265Z"/>
      </g>
    </g>
    <g id="Group_1355" data-name="Group 1355">
      <g id="Group_1354" data-name="Group 1354">
        <path id="Path_8119" data-name="Path 8119" class="cls-1" d="M223.92,362.265a7.82,7.82,0,1,0,2.3,5.538A7.864,7.864,0,0,0,223.92,362.265Z"/>
      </g>
    </g>
    <g id="Group_1357" data-name="Group 1357">
      <g id="Group_1356" data-name="Group 1356">
        <path id="Path_8120" data-name="Path 8120" class="cls-1" d="M274.074,362.265a7.82,7.82,0,1,0,2.3,5.538A7.864,7.864,0,0,0,274.074,362.265Z"/>
      </g>
    </g>
    <g id="Group_1359" data-name="Group 1359">
      <g id="Group_1358" data-name="Group 1358">
        <path id="Path_8121" data-name="Path 8121" class="cls-1" d="M324.228,362.265a7.82,7.82,0,1,0,2.3,5.538A7.846,7.846,0,0,0,324.228,362.265Z"/>
      </g>
    </g>
    <g id="Group_1361" data-name="Group 1361">
      <g id="Group_1360" data-name="Group 1360">
        <path id="Path_8122" data-name="Path 8122" class="cls-1" d="M374.382,362.265a7.82,7.82,0,1,0,2.3,5.538A7.864,7.864,0,0,0,374.382,362.265Z"/>
      </g>
    </g>
    <g id="Group_1363" data-name="Group 1363">
      <g id="Group_1362" data-name="Group 1362">
        <path id="Path_8123" data-name="Path 8123" class="cls-1" d="M424.536,362.265a7.82,7.82,0,1,0,2.3,5.538A7.846,7.846,0,0,0,424.536,362.265Z"/>
      </g>
    </g>
    <g id="Group_1365" data-name="Group 1365">
      <g id="Group_1364" data-name="Group 1364">
        <path id="Path_8124" data-name="Path 8124" class="cls-1" d="M421.782,460.807a7.837,7.837,0,0,0-11.055-.782,49.96,49.96,0,0,1-70.924-5.519,7.838,7.838,0,0,0-11.968,0,49.959,49.959,0,0,1-71.791,4.748,7.837,7.837,0,0,0-10.543,11.6,65.63,65.63,0,0,0,88.32-.018A65.626,65.626,0,0,0,421,471.861,7.836,7.836,0,0,0,421.782,460.807Z"/>
      </g>
    </g>
    <g id="Group_1367" data-name="Group 1367">
      <g id="Group_1366" data-name="Group 1366">
        <path id="Path_8125" data-name="Path 8125" class="cls-1" d="M162.2,453.584a7.838,7.838,0,0,0-11.044.923,49.965,49.965,0,0,1-76.372,0A7.837,7.837,0,1,0,62.82,464.628a65.64,65.64,0,0,0,100.306,0A7.837,7.837,0,0,0,162.2,453.584Z"/>
      </g>
    </g>
    <g id="Group_1369" data-name="Group 1369">
      <g id="Group_1368" data-name="Group 1368">
        <path id="Path_8126" data-name="Path 8126" class="cls-1" d="M510.33,276.6a11.157,11.157,0,0,0-9.666-5.015h-7.412V239.052a13.076,13.076,0,0,0-13.061-13.061h-19.54v-37.43A13.076,13.076,0,0,0,447.59,175.5H278.019V145.122a13.707,13.707,0,0,0-13.691-13.691h-2L252.6,114.576a21.467,21.467,0,0,0-4.632-37.505V56.513l5.163-.765A10.318,10.318,0,0,0,261.886,45.6V40.317a9.938,9.938,0,0,0-9.926-9.926H140.1a13.052,13.052,0,0,0-11.16-6.311h-53.7A13.076,13.076,0,0,0,62.175,37.141V71.986A13.076,13.076,0,0,0,75.236,85.047h6.35V257.385h-9.5a13.076,13.076,0,0,0-13.061,13.061v4.985H41.187a13.076,13.076,0,0,0-13.061,13.061v29.845H11.644a11.549,11.549,0,0,0-9.593,4.755A11.55,11.55,0,0,0,.715,333.717l31.387,90.1a50.075,50.075,0,0,1-7.468.574,7.837,7.837,0,0,0,0,15.674A65.526,65.526,0,0,0,68.8,422.981a65.628,65.628,0,0,0,88.338,0,65.63,65.63,0,0,0,88.34,0,65.629,65.629,0,0,0,88.339,0,65.628,65.628,0,0,0,88.338,0,65.53,65.53,0,0,0,44.169,17.088,7.837,7.837,0,0,0,0-15.674,49.9,49.9,0,0,1-17.382-3.136l27.072-58.525a7.837,7.837,0,1,0-14.225-6.581l-11.828,25.57H138.972a7.837,7.837,0,0,0,0,15.674H442.716l-7.463,16.133a50.4,50.4,0,0,1-7.11-6.878,7.838,7.838,0,0,0-11.968,0,49.963,49.963,0,0,1-76.372,0,7.838,7.838,0,0,0-11.968,0,49.963,49.963,0,0,1-76.372,0,7.838,7.838,0,0,0-11.968,0,49.963,49.963,0,0,1-76.372,0,7.837,7.837,0,0,0-11.967,0,49.963,49.963,0,0,1-76.372,0,7.838,7.838,0,0,0-11.968,0A50.067,50.067,0,0,1,47.039,419.07L39.49,397.4h61.862a7.837,7.837,0,0,0,0-15.674H34.029L17.408,334.008H268.974a16.768,16.768,0,0,0,14.578-9.319l17.135-37.04a2.006,2.006,0,0,1,.612-.392H493.663l-17.853,38.6a7.837,7.837,0,1,0,14.226,6.58l20.792-44.95A11.155,11.155,0,0,0,510.33,276.6Zm-451.3,41.736H43.8V291.1H59.028ZM366,191.173h78.975V225.99H366ZM262.345,147.1v40.907H217.916V147.1ZM236.03,131.431l4.1-7.1,4.1,7.1Zm4.1-40.188a5.838,5.838,0,1,1-5.836,5.838A5.843,5.843,0,0,1,240.131,91.243ZM142,46.064h69.562L142,56.373ZM77.848,69.373V39.753h48.478v29.62Zm19.41,94.156V155.17h9.657v8.359Zm9.657,15.673v7.314H97.258V179.2ZM97.258,139.5v-8.359h9.657V139.5Zm0-24.032v-8.359h9.657v8.359Zm0-24.032V85.047h9.656v6.386Zm32.214,226.9H74.7V273.056h54.77Zm31.953,0h-16.28V291.1h16.28Zm.657-79.285v36.381H145.145v-4.985a13.076,13.076,0,0,0-13.061-13.061h-9.5v-9.741a7.837,7.837,0,1,0-15.674,0v9.741H97.257V202.192h9.656V216.3a7.837,7.837,0,1,0,15.674,0V85.047h6.351a13.07,13.07,0,0,0,13.049-12.828l90.308-13.384V77.069a21.466,21.466,0,0,0-4.632,37.505l-9.729,16.855h-2a13.707,13.707,0,0,0-13.691,13.691v44.871a13.707,13.707,0,0,0,13.691,13.691h11.351v22.306H175.144A13.077,13.077,0,0,0,162.082,239.05Zm123.044,37.432H262.268a7.837,7.837,0,0,0,0,15.674H281.34l-11.93,25.79a2.006,2.006,0,0,1-.612.392H177.1V292.156h52.779a7.837,7.837,0,0,0,0-15.674H177.756V241.665h107.37v34.817ZM242.958,225.99V203.684h21.37a13.7,13.7,0,0,0,13.631-12.511h72.369V225.99Zm165.211,45.594H301.123c-.108,0-.215.01-.324.014V241.663h107.37v29.921Zm69.409,0H423.842V241.663h53.736Z"/>
      </g>
    </g>
  </g>
</svg>
