<svg xmlns="http://www.w3.org/2000/svg" xmlns:xlink="http://www.w3.org/1999/xlink" viewBox="-8752 8510 502.56 496.436">
  <defs>
    <style>
      .cls-1 {
        fill: url(#linear-gradient);
      }
    </style>
    <linearGradient id="linear-gradient" x1="0.5" x2="0.5" y2="1" gradientUnits="objectBoundingBox">
      <stop offset="0" stop-color="#97cc53"/>
      <stop offset="1" stop-color="#4c662a"/>
    </linearGradient>
  </defs>
  <g id="warehouse" transform="translate(-8752 8506.936)">
    <g id="Group_1387" data-name="Group 1387">
      <g id="Group_1386" data-name="Group 1386">
        <path id="Path_8128" data-name="Path 8128" class="cls-1" d="M467.28,467.5h24v-128h-24V129.328l12.088,3.888L502.56,86.824,251.28,3.064,0,86.824l23.192,46.392,12.088-3.888V483.5h-32v16h496v-16h-32Zm8-112v96h-8v-96ZM215.6,483.5H107.28v-216h80v184h-64v16h80v-232h16V415.82a47.753,47.753,0,0,0-3.68,67.68Zm35.68,0a32,32,0,1,1,32-32,32,32,0,0,1-32,32Zm45.656-173.66-11.312,11.312L295.968,331.5l-31.04,31.04L297.392,243.5h92.256l29.6,82.9L321.52,371.5H278.592l28.688-28.688,10.344,10.344,11.312-11.312Zm-60.408,96c-.424.136-.832.3-1.248.456V267.5h38.984ZM286.96,483.5a48.068,48.068,0,0,0,9.52-16h77.6a48.069,48.069,0,0,0,9.52,16Zm132.32,0a32,32,0,1,1,32-32A32,32,0,0,1,419.28,483.5Zm32-67.68a47.922,47.922,0,0,0-80,35.68h-72a48.024,48.024,0,0,0-45.56-47.88l4.4-16.12h66.92l99.608-45.976L429.64,355.5h21.64v60.32Zm0-76.32H440.92l-34.288-96H419.28v-16h-152v16h13.528l-2.184,8H235.28v-16h16v-16h-80v16h16v16h-96v232h-40v-288h400Zm0-160h-400V124.184l200-64.28,200,64.288Zm-200-136.408L31.368,113.776,22.56,96.168l228.72-76.24L480,96.168l-8.808,17.608Z"/>
        <rect id="Rectangle_3019" data-name="Rectangle 3019" class="cls-1" width="16" height="16" transform="translate(243.28 91.496)"/>
        <rect id="Rectangle_3020" data-name="Rectangle 3020" class="cls-1" width="16" height="16" transform="translate(275.28 91.496)"/>
        <rect id="Rectangle_3021" data-name="Rectangle 3021" class="cls-1" width="16" height="16" transform="translate(211.28 91.496)"/>
      </g>
    </g>
  </g>
</svg>
