<svg xmlns="http://www.w3.org/2000/svg" xmlns:xlink="http://www.w3.org/1999/xlink" viewBox="-11325 8510 480 448">
  <defs>
    <style>
      .cls-1 {
        fill: url(#linear-gradient);
      }
    </style>
    <linearGradient id="linear-gradient" x1="0.5" x2="0.5" y2="1" gradientUnits="objectBoundingBox">
      <stop offset="0" stop-color="#97cc53"/>
      <stop offset="1" stop-color="#4c662a"/>
    </linearGradient>
  </defs>
  <g id="logistic" transform="translate(-11325 8494)">
    <g id="Group_14093" data-name="Group 14093">
      <g id="Group_14092" data-name="Group 14092">
        <path id="Path_7699" data-name="Path 7699" class="cls-1" d="M432,368H416V264a8,8,0,0,0-8-8H392V24a8,8,0,0,0-8-8H128a8,8,0,0,0-8,8V72a8,8,0,0,0,8,8h40v41.136a31.9,31.9,0,0,0-23.576,26.68L107,177.752A8,8,0,0,0,104,184v32a8,8,0,0,0,16,0V187.84l27.344-21.872a31.784,31.784,0,0,0,57.312,0L232,187.84V216a8,8,0,0,0,16,0V184a8,8,0,0,0-3-6.248l-37.424-29.936A31.9,31.9,0,0,0,184,121.136V80H328V256H264a8,8,0,0,0-8,8V368H224V264a8,8,0,0,0-8-8H72a8,8,0,0,0-8,8V368H48a48,48,0,1,0,0,96H432a48,48,0,0,0,0-96ZM152,64H136V32h16Zm40,88a16,16,0,1,1-16-16A16,16,0,0,1,192,152Zm-8-88H168V32h16Zm16,0V32H376V64ZM376,80V256H344V80ZM320,272h32v32H320Zm-48,0h32v40a8,8,0,0,0,8,8h48a8,8,0,0,0,8-8V272h32v96H272Zm-144,0h32v32H128Zm-48,0h32v40a8,8,0,0,0,8,8h48a8,8,0,0,0,8-8V272h32v96H80ZM432,448H48a32,32,0,0,1,0-64H432a32,32,0,0,1,0,64Z"/>
      </g>
    </g>
    <g id="Group_14095" data-name="Group 14095">
      <g id="Group_14094" data-name="Group 14094">
        <path id="Path_7700" data-name="Path 7700" class="cls-1" d="M48,392a24,24,0,1,0,24,24A24,24,0,0,0,48,392Zm0,32a8,8,0,1,1,8-8A8,8,0,0,1,48,424Z"/>
      </g>
    </g>
    <g id="Group_14097" data-name="Group 14097">
      <g id="Group_14096" data-name="Group 14096">
        <path id="Path_7701" data-name="Path 7701" class="cls-1" d="M112,392a24,24,0,1,0,24,24,24,24,0,0,0-24-24Zm0,32a8,8,0,1,1,8-8A8,8,0,0,1,112,424Z"/>
      </g>
    </g>
    <g id="Group_14099" data-name="Group 14099">
      <g id="Group_14098" data-name="Group 14098">
        <path id="Path_7702" data-name="Path 7702" class="cls-1" d="M176,392a24,24,0,1,0,24,24A24,24,0,0,0,176,392Zm0,32a8,8,0,1,1,8-8A8,8,0,0,1,176,424Z"/>
      </g>
    </g>
    <g id="Group_14101" data-name="Group 14101">
      <g id="Group_14100" data-name="Group 14100">
        <path id="Path_7703" data-name="Path 7703" class="cls-1" d="M240,392a24,24,0,1,0,24,24A24,24,0,0,0,240,392Zm0,32a8,8,0,1,1,8-8A8,8,0,0,1,240,424Z"/>
      </g>
    </g>
    <g id="Group_14103" data-name="Group 14103">
      <g id="Group_14102" data-name="Group 14102">
        <path id="Path_7704" data-name="Path 7704" class="cls-1" d="M304,392a24,24,0,1,0,24,24A24,24,0,0,0,304,392Zm0,32a8,8,0,1,1,8-8A8,8,0,0,1,304,424Z"/>
      </g>
    </g>
    <g id="Group_14105" data-name="Group 14105">
      <g id="Group_14104" data-name="Group 14104">
        <path id="Path_7705" data-name="Path 7705" class="cls-1" d="M368,392a24,24,0,1,0,24,24A24,24,0,0,0,368,392Zm0,32a8,8,0,1,1,8-8A8,8,0,0,1,368,424Z"/>
      </g>
    </g>
    <g id="Group_14107" data-name="Group 14107">
      <g id="Group_14106" data-name="Group 14106">
        <path id="Path_7706" data-name="Path 7706" class="cls-1" d="M432,392a24,24,0,1,0,24,24A24,24,0,0,0,432,392Zm0,32a8,8,0,1,1,8-8A8,8,0,0,1,432,424Z"/>
      </g>
    </g>
    <g id="Group_14109" data-name="Group 14109">
      <g id="Group_14108" data-name="Group 14108">
        <path id="Path_7707" data-name="Path 7707" class="cls-1" d="M192,336H176a8,8,0,0,0,0,16h16a8,8,0,0,0,0-16Z"/>
      </g>
    </g>
    <g id="Group_14111" data-name="Group 14111">
      <g id="Group_14110" data-name="Group 14110">
        <path id="Path_7708" data-name="Path 7708" class="cls-1" d="M384,336H368a8,8,0,0,0,0,16h16a8,8,0,0,0,0-16Z"/>
      </g>
    </g>
  </g>
</svg>
