<svg xmlns="http://www.w3.org/2000/svg" viewBox="-17307.002 -9518 504.119 512">
  <defs>
    <style>
      .cls-1 {
        fill: #b4d46a;
      }
    </style>
  </defs>
  <g id="perfume" transform="translate(-17310.949 -9518)">
    <g id="Group_14113" data-name="Group 14113">
      <g id="Group_14112" data-name="Group 14112">
        <path id="Path_7709" data-name="Path 7709" class="cls-1" d="M187.935,250.95a70.993,70.993,0,0,0-40.471,129.32,9.028,9.028,0,0,0,5.151,1.614h70.639a9.028,9.028,0,0,0,5.151-1.614,70.993,70.993,0,0,0-40.47-129.32ZM220.3,363.83H155.565a52.939,52.939,0,1,1,64.737,0Z"/>
      </g>
    </g>
    <g id="Group_14115" data-name="Group 14115">
      <g id="Group_14114" data-name="Group 14114">
        <path id="Path_7710" data-name="Path 7710" class="cls-1" d="M97.249,58.531h-.07l-39.422.3a9.027,9.027,0,1,0,.067,18.053h.07l39.422-.3a9.027,9.027,0,1,0-.067-18.053Z"/>
      </g>
    </g>
    <g id="Group_14117" data-name="Group 14117">
      <g id="Group_14116" data-name="Group 14116">
        <circle id="Ellipse_320" data-name="Ellipse 320" class="cls-1" cx="9.026" cy="9.026" r="9.026" transform="translate(17.077 59.079)"/>
      </g>
    </g>
    <g id="Group_14119" data-name="Group 14119">
      <g id="Group_14118" data-name="Group 14118">
        <circle id="Ellipse_321" data-name="Ellipse 321" class="cls-1" cx="9.026" cy="9.026" r="9.026" transform="translate(8.048 10.264)"/>
      </g>
    </g>
    <g id="Group_14121" data-name="Group 14121">
      <g id="Group_14120" data-name="Group 14120">
        <circle id="Ellipse_322" data-name="Ellipse 322" class="cls-1" cx="9.026" cy="9.026" r="9.026" transform="translate(3.948 116.667)"/>
      </g>
    </g>
    <g id="Group_14123" data-name="Group 14123">
      <g id="Group_14122" data-name="Group 14122">
        <path id="Path_7711" data-name="Path 7711" class="cls-1" d="M117.48,25.179l-19.3-9.816A9.026,9.026,0,1,0,90,31.455l19.3,9.815a9.027,9.027,0,1,0,8.185-16.091Z"/>
      </g>
    </g>
    <g id="Group_14125" data-name="Group 14125">
      <g id="Group_14124" data-name="Group 14124">
        <circle id="Ellipse_323" data-name="Ellipse 323" class="cls-1" cx="9.026" cy="9.026" r="9.026" transform="translate(56.788 0)"/>
      </g>
    </g>
    <g id="Group_14127" data-name="Group 14127">
      <g id="Group_14126" data-name="Group 14126">
        <path id="Path_7712" data-name="Path 7712" class="cls-1" d="M124.751,93.025a9.027,9.027,0,0,0-12.7-1.314l-16.8,13.651a9.027,9.027,0,1,0,11.385,14.011l16.8-13.651a9.027,9.027,0,0,0,1.313-12.7Z"/>
      </g>
    </g>
    <g id="Group_14129" data-name="Group 14129">
      <g id="Group_14128" data-name="Group 14128">
        <circle id="Ellipse_324" data-name="Ellipse 324" class="cls-1" cx="9.026" cy="9.026" r="9.026" transform="translate(67.287 123.346)"/>
      </g>
    </g>
    <g id="Group_14131" data-name="Group 14131">
      <g id="Group_14130" data-name="Group 14130">
        <circle id="Ellipse_325" data-name="Ellipse 325" class="cls-1" cx="9.026" cy="9.026" r="9.026" transform="translate(178.865 50.052)"/>
      </g>
    </g>
    <g id="Group_14133" data-name="Group 14133">
      <g id="Group_14132" data-name="Group 14132">
        <path id="Path_7713" data-name="Path 7713" class="cls-1" d="M500.821,201.531a74.381,74.381,0,0,0-116.889-23.362l-5-10.489a1.465,1.465,0,0,1,.693-1.953l35.382-16.855a1.465,1.465,0,0,1,1.953.692,9.028,9.028,0,1,0,16.3-7.766,19.52,19.52,0,0,0-26.017-9.226l-11.219,5.345A191.285,191.285,0,0,0,224.994,44.6V33.575a18.368,18.368,0,0,0-18.346-18.348H169.122a18.367,18.367,0,0,0-18.346,18.348v87.9H132.523a21.087,21.087,0,0,0-21.062,21.062v33.742a172.583,172.583,0,0,0-34.6,286.86A27.78,27.78,0,0,0,94.972,512H280.8a27.78,27.78,0,0,0,18.158-48.819,172.807,172.807,0,0,0,61.6-132.175c0-95.185-77.439-172.624-172.624-172.624a171.841,171.841,0,0,0-58.422,10.184V142.535a3.013,3.013,0,0,1,3.009-3.009H243.245a3.013,3.013,0,0,1,3.009,3.009,9.026,9.026,0,1,0,18.052,0,21.087,21.087,0,0,0-21.062-21.062H224.991V62.656a173.243,173.243,0,0,1,154.654,83.066l-7.784,3.708a19.54,19.54,0,0,0-9.227,26.016l8.476,17.793a74.406,74.406,0,1,0,129.711,8.292Zm-312.885-25.1c85.229,0,154.57,69.339,154.57,154.57A154.76,154.76,0,0,1,277.3,457.1a9.027,9.027,0,0,0,3.5,17.349,9.745,9.745,0,1,1,0,19.49H94.971a9.745,9.745,0,0,1,0-19.49h141.39a9.026,9.026,0,1,0,0-18.052H97.561A154.762,154.762,0,0,1,33.365,331c0-85.226,69.341-154.567,154.571-154.567Zm19-122.4V121.47H168.827V33.57a.3.3,0,0,1,.294-.295h37.526a.3.3,0,0,1,.294.295V54.029ZM486.76,252.376a56.365,56.365,0,1,1-97.989-52.983l.03-.039a56.373,56.373,0,0,1,97.959,53.022Z"/>
      </g>
    </g>
  </g>
</svg>
